<?xml version="1.0" encoding="UTF-8" standalone="no"?><!DOCTYPE svg PUBLIC "-//W3C//DTD SVG 1.1//EN" "http://www.w3.org/Graphics/SVG/1.1/DTD/svg11.dtd"><svg width="100%" height="100%" viewBox="0 0 631 910" version="1.1" xmlns="http://www.w3.org/2000/svg" xmlns:xlink="http://www.w3.org/1999/xlink" xml:space="preserve" xmlns:serif="http://www.serif.com/" style="fill-rule:evenodd;clip-rule:evenodd;stroke-linejoin:round;stroke-miterlimit:1.41421;"><g id="Layer-1" serif:id="Layer 1"><path d="M315.057,0c6.56,9.46 44.907,61.07 102.391,63.645c70.875,-0.041 141.75,0 212.667,-0.041c-0.167,211.416 -0.042,422.833 -0.084,634.25c-76.375,0.041 -152.791,0.041 -229.166,0.041c-33.404,-0.498 -68.848,-14.674 -85.808,-44.917c-16.96,30.243 -52.404,44.419 -85.807,44.917c-76.375,0 -152.792,0 -229.167,-0.041c-0.041,-211.417 0.084,-422.834 -0.083,-634.25c70.917,0.041 141.792,0 212.667,0.041c57.483,-2.575 95.83,-54.185 102.39,-63.645l0,0l0,0l0,0l0,0Zm0,62.243c-25.733,22.285 -53.883,41.78 -90.974,42.236c-61,0.75 -122.041,0.125 -183.083,0.291c0.083,183.917 0.083,367.875 0.042,551.792c67.541,-0.167 135.083,0.083 202.625,-0.125c22.75,-5.708 43.524,-19.243 49.541,-45.625c9.526,-41.763 -20.354,-79.55 -57.503,-78.226c-17.493,0.624 -34.886,12.237 -37.177,31.445c-1.463,12.259 1.771,22.323 7.472,28.031c5.701,5.708 26.208,8.667 26.208,8.667c0,0 -13.945,9.693 -30.458,12.416c-47.26,7.793 -73.787,-14.764 -84.833,-24.125c-25.115,-21.283 -34.36,-45.235 -36.545,-67.548c-3.661,-37.389 7.778,-49.142 19.336,-65.868c-14.969,-18.317 -35.474,-57.25 -9.855,-106.158c9.972,-19.036 33.327,-43.809 68.105,-49.009c-2.208,-16.333 1.505,-37.91 20,-62.708c9.829,-13.178 23.447,-23.361 37.167,-32.417c61.639,-40.686 93.905,-91.825 99.932,-101.991l0,0l0,0l0,0l0,0c6.028,10.166 38.294,61.305 99.933,101.991c13.719,9.056 27.338,19.239 37.166,32.417c18.496,24.798 22.209,46.375 20,62.708c34.779,5.2 58.134,29.973 68.105,49.009c25.619,48.908 5.114,87.841 -9.855,106.158c11.558,16.726 22.998,28.479 19.336,65.868c-2.185,22.313 -11.429,46.265 -36.544,67.548c-11.046,9.361 -37.574,31.918 -84.833,24.125c-16.513,-2.723 -30.459,-12.416 -30.459,-12.416c0,0 20.507,-2.959 26.209,-8.667c5.701,-5.708 8.935,-15.772 7.472,-28.031c-2.292,-19.208 -19.684,-30.821 -37.177,-31.445c-37.149,-1.324 -67.029,36.463 -57.504,78.226c6.018,26.382 26.792,39.917 49.542,45.625c67.542,0.208 135.083,-0.042 202.625,0.125c-0.042,-183.917 -0.042,-367.875 0.042,-551.792c-61.042,-0.166 -122.084,0.459 -183.084,-0.291c-37.09,-0.456 -65.24,-19.951 -90.974,-42.236Zm0.625,105.402c-0.303,-0.285 -0.946,-0.285 -1.249,0c-11.857,11.188 -27.707,40.545 -69.891,67.125c-16.83,10.605 -36.431,24.771 -43.75,40.584c-7.32,15.812 -7.71,37.927 -0.167,54.291c3.832,8.313 17.083,21.5 17.083,21.5c0,0 -16.639,-9.61 -25.833,-11.958c-20.145,-5.145 -52.002,0.399 -68.105,32.245c-16.617,32.864 4.61,61.332 28.98,75.047c8.487,4.776 27.583,9.625 27.583,9.625c0,0 -46.965,9.981 -58.769,42.896c-4.853,13.534 -4.071,28.216 4.134,43.607c5.655,10.606 17.627,23.066 33.577,28.187c-1.68,-47.803 25.222,-70.032 59.767,-77.732c37.44,-8.346 74.422,5.858 96.015,35.047c21.594,-29.189 58.575,-43.393 96.016,-35.047c34.545,7.7 61.447,29.929 59.767,77.732c15.95,-5.121 27.922,-17.581 33.576,-28.187c8.205,-15.391 8.988,-30.073 4.134,-43.607c-11.804,-32.915 -58.769,-42.896 -58.769,-42.896c0,0 19.097,-4.849 27.584,-9.625c24.37,-13.715 45.597,-42.183 28.979,-75.047c-16.102,-31.846 -47.96,-37.39 -68.104,-32.245c-9.194,2.348 -25.834,11.958 -25.834,11.958c0,0 13.252,-13.187 17.084,-21.5c7.543,-16.364 7.152,-38.479 -0.167,-54.291c-7.32,-15.813 -26.921,-29.979 -43.75,-40.584c-42.184,-26.58 -58.034,-55.937 -69.891,-67.125Z" style="fill:#010101;"/></g><g><path d="M149.545,895.304c0.347,2.009 -0.346,4.711 -2.078,8.175c-2.079,4.088 -4.019,6.097 -5.751,6.097c-1.247,-1.039 -3.118,-2.494 -5.612,-4.296c-2.425,-1.87 -3.672,-3.048 -3.672,-3.672c0.07,-0.623 1.178,-2.972 3.187,-6.997c2.079,-4.019 3.811,-7.067 5.266,-9.076c2.979,2.217 5.058,4.025 6.305,5.473c1.247,1.386 2.009,2.841 2.355,4.296Zm-48.667,-71.848c-1.662,7.483 -2.84,12.541 -3.672,15.173c-7.274,21.755 -19.122,37.206 -35.681,46.282c-7.344,3.603 -14.896,5.266 -22.794,5.127c-7.829,-0.139 -14.411,-2.633 -19.746,-7.406c-5.335,-4.719 -8.037,-12.479 -8.037,-23.148c0,-14.342 6.236,-32.217 18.707,-53.557c1.448,-2.494 2.494,-3.672 3.187,-3.464c0.693,0.208 0.9,1.039 0.623,2.425c-0.208,1.455 -0.623,2.633 -1.177,3.534c-8.176,16.697 -12.333,28.475 -12.541,35.334c-0.554,15.243 7.968,22.933 25.427,23.141c18.222,0 32.633,-8.175 43.233,-24.526c3.326,-5.058 5.058,-10.878 5.127,-17.598l0.485,-15.866c0.139,-4.365 1.386,-9.562 3.811,-15.52c4.088,-8.106 6.443,-12.263 7.206,-12.54c0.762,-0.208 1.039,0.485 0.97,2.147c-1.109,6.097 -1.802,12.333 -2.218,18.707c-0.346,6.998 -1.316,14.273 -2.91,21.755Zm127.213,-16.282c0.07,4.85 -1.87,14.966 -5.958,30.347c-2.009,6.859 -4.157,12.124 -6.374,15.596c-2.286,3.526 -5.612,6.159 -9.977,7.96c-8.383,3.672 -14.48,5.474 -18.222,5.474c-1.177,0.138 -1.593,-0.416 -1.316,-1.663c0.208,-1.178 4.226,-4.642 11.917,-10.323c7.69,-5.751 13.372,-12.125 17.044,-19.261c1.801,-2.91 4.572,-10.809 8.452,-23.557c1.386,-4.503 2.494,-6.72 3.326,-6.582c0.831,0.07 1.178,0.762 1.108,2.009Zm-113.214,36.161c-0.056,0.004 0.055,0 0,0c0.138,-10.185 2.05,-28.262 6.138,-54.244c1.039,-3.949 4.018,-11.085 8.799,-21.339c0.208,-0.277 0.485,-0.346 0.762,-0.069c0.346,0.277 0.277,1.316 -0.139,3.187c-0.97,4.85 -2.217,13.857 -3.949,27.02c-1.493,11.883 -2.316,20.637 -2.468,26.313l0.029,-0.054c0,12.818 5.335,19.192 15.866,19.192c5.543,0 10.739,-1.455 15.519,-4.435c4.712,-2.909 7.275,-5.75 7.552,-8.452c-2.771,0.485 -7.552,0.831 -14.203,0.831c-6.651,0.07 -9.769,-0.554 -9.353,-1.801c1.524,-5.404 4.988,-10.531 10.531,-15.243l0.012,0.016c9.454,-7.863 18.637,-14.777 27.548,-20.81c9.076,-6.097 18.984,-11.501 29.792,-16.351c1.594,-0.692 2.287,-0.623 2.148,0.347c-0.208,0.901 -1.663,3.672 -4.434,8.245c-2.771,4.572 -5.474,7.552 -8.106,9.007c-6.652,3.471 -15.104,7.829 -25.289,12.956c-9.859,5.064 -17.668,10.532 -21.614,13.154c-0.918,0.61 -2.066,2.582 -2.066,2.582c1.247,0.208 4.018,0.277 8.383,0.138c4.365,-0.069 8.661,-0.692 12.956,-1.732c1.802,-0.623 3.326,-0.9 4.573,-0.831c1.247,0.069 1.94,0.831 2.009,2.425c0,1.039 -1.455,3.464 -4.365,7.205l-5.958,7.691c-10.393,17.598 -21.478,26.397 -33.326,26.397c-5.819,0 -10.184,-2.286 -13.094,-6.928c-2.617,-4.112 -4.001,-8.951 -4.253,-14.417Zm-44.414,-25.976c0.554,2.564 -0.277,5.959 -2.494,10.254c-2.633,5.197 -5.058,7.829 -7.414,7.829c-1.524,-1.316 -3.88,-3.187 -6.997,-5.473c-3.049,-2.286 -4.573,-3.949 -4.573,-4.85c0.069,-0.624 1.386,-3.533 3.949,-8.591c2.564,-5.058 4.85,-8.938 6.721,-11.571c3.741,2.841 6.443,5.197 7.967,6.929c1.594,1.801 2.564,3.603 2.841,5.473Zm166.646,-46.905c0.346,2.009 -0.347,4.711 -2.01,8.176c-2.078,4.087 -4.018,6.097 -5.819,6.097c-1.248,-1.04 -3.118,-2.495 -5.543,-4.296c-2.494,-1.871 -3.742,-3.118 -3.742,-3.88c0.139,-0.485 1.178,-2.771 3.257,-6.79c2.009,-4.088 3.81,-7.136 5.265,-9.215c2.91,2.218 4.989,4.019 6.305,5.474c1.247,1.524 2.009,2.979 2.287,4.434Zm-54.307,-32.494c0.346,2.009 -0.347,4.711 -2.01,8.175c-2.078,4.088 -4.018,6.097 -5.82,6.097c-1.247,-1.039 -3.117,-2.494 -5.542,-4.295c-2.494,-1.871 -3.742,-3.118 -3.742,-3.88c0.139,-0.485 1.178,-2.771 3.257,-6.79c2.009,-4.088 3.81,-7.136 5.265,-9.215c2.91,2.217 4.989,4.019 6.305,5.474c1.247,1.524 2.009,2.979 2.287,4.434Z"/><g id="Logo"><path d="M505.212,743.947c3.481,-7.226 6.5,-14.732 11.179,-21.306c4.907,3.943 12.099,7.566 11.861,14.889c-0.761,6.747 -4.588,13.669 -10.641,17.018c-4.364,-3.217 -8.942,-6.394 -12.399,-10.601" style="fill-rule:nonzero;"/><path d="M417.961,754.983c3.277,-6.942 6.409,-13.998 10.633,-20.432c5.402,3.604 12.387,7.83 12.124,15.271c-1.111,6.432 -4.495,13.236 -10.492,16.363c-2.853,-0.867 -4.651,-3.481 -7.093,-5.056c-1.97,-1.693 -5.065,-3.275 -5.172,-6.146" style="fill-rule:nonzero;"/><path d="M297.865,842.112c-5.19,1.759 -5.322,8.09 -4.498,12.595c0.132,4.322 4.051,7.582 8.118,8.183c4.066,0.494 8.521,0.282 12.058,-2.022c4.183,-2.572 6.772,-7.9 5.511,-12.741c-1.245,-2.445 -3.795,-3.805 -6.327,-4.546c-4.767,-1.442 -9.914,-2.738 -14.862,-1.469m69.384,-100.582c1.13,-1.319 1.32,-3.833 3.415,-3.919c-0.107,4.333 -1.556,8.465 -3.002,12.506c-7.093,16.233 -18.641,29.901 -30.222,43.09c-11.145,11.77 -21.611,24.158 -32.524,36.127c18.616,0.586 36.673,5.75 55.033,8.425c13.396,2.178 27.005,2.341 40.542,2.207c51.181,0.098 101.745,-17.583 143.019,-47.551c6.807,-4.957 13.487,-10.13 19.433,-16.108c3.187,-3.051 4.207,-7.492 5.725,-11.475c1.931,-6.055 6.327,-10.805 9.668,-16.093c1.74,-2.21 2.843,-5.245 5.634,-6.351c0.389,4.414 -1.939,8.365 -2.986,12.529c-1.397,5.627 -3.4,11.079 -5.602,16.438c-6.276,12.812 -17.091,22.569 -27.805,31.659c-6.102,4.908 -11.919,10.227 -18.578,14.394c-3.33,2.152 -6.589,4.42 -9.729,6.844c-28.597,19.633 -61.901,32.122 -96.179,37.087c-13.198,2.097 -26.576,2.335 -39.898,2.674c-9.402,-0.595 -18.945,-0.092 -28.16,-2.417c-9.873,-2.201 -18.617,-7.722 -26.122,-14.336c-2.261,4.494 -3.085,9.521 -4.924,14.181c-3.306,9.608 -8.703,18.928 -17.199,24.809c-4.825,3.506 -11.771,4.008 -16.892,0.851c-3.746,-2.278 -5.667,-6.467 -7.135,-10.421c-3.02,-10.426 -1.65,-21.345 -0.775,-31.97c1.419,-19.333 3.678,-38.62 6.59,-57.789c2.474,-7.159 5.387,-14.17 7.969,-21.286c0.552,-1.233 0.782,-2.906 2.267,-3.343c-0.815,22.616 -5.807,44.848 -7.679,67.389c11.903,-11.309 22.486,-23.903 33.719,-35.864c15.343,-16.397 29.389,-33.982 42.397,-52.287" style="fill-rule:nonzero;"/><path d="M345.456,759.108c1.824,-2.079 2.946,-4.718 5.033,-6.557c-0.577,4.864 -3.464,9.009 -6.236,12.892c-6.236,8.339 -13.742,15.605 -21.306,22.708c3.983,-12.036 14.856,-19.523 22.509,-29.043" style="fill-rule:nonzero;"/><path d="M430.003,782.954c3.085,-6.994 6.443,-13.956 10.657,-20.349c4.273,3.251 9.438,6.219 11.384,11.533c1.651,6.556 -2.275,12.8 -6.351,17.61c-1.19,1.311 -3.132,3.536 -5.009,2.061c-3.737,-2.938 -7.596,-5.814 -10.871,-9.272c0.049,-0.396 0.149,-1.187 0.19,-1.583" style="fill-rule:nonzero;"/><path d="M407.65,781.971c2.525,-6.35 5.99,-12.239 9.559,-18.038c4.703,3.836 11.311,7.342 11.788,14.114c0.196,4.916 -2.465,9.353 -5.154,13.264c-1.262,2.029 -3.316,3.291 -5.23,4.635c-4.09,-2.615 -7.737,-5.897 -11.358,-9.117c-1.814,-1.285 -0.126,-3.338 0.395,-4.858" style="fill-rule:nonzero;"/><path d="M572.348,798.761c1.428,-0.647 1.541,1.35 1.445,2.316c-1.412,8.461 -1.974,17.041 -3.102,25.535c-1.544,11.646 -2.353,23.664 -7.145,34.555c-3.289,7.101 -6.508,14.394 -11.572,20.423c-0.571,0.338 -1.146,0.66 -1.733,0.966c-0.233,-1.328 -0.42,-2.682 0.106,-3.952c2.51,-8.768 5.069,-17.537 6.55,-26.537c1.797,-8.066 2.287,-16.339 3.424,-24.503c1.493,-7.235 4.982,-13.785 7.779,-20.555c1.179,-2.864 2.542,-5.668 4.248,-8.248" style="fill-rule:nonzero;"/><path d="M602.091,822.918c0.718,-1.353 1.484,-3.06 2.976,-3.637c6.668,5.106 13.15,11.714 14.014,20.498c0.827,11.975 -4.453,23.319 -10.352,33.413c-5.063,7.102 -14.177,8.735 -21.7,12.044c-1.378,0.628 -4.701,1.856 -4.594,-0.751c0.636,-1.361 1.89,-2.286 2.92,-3.326c5.775,-5.295 12.299,-9.797 17.388,-15.82c1.756,-2.044 4.246,-4.279 3.497,-7.283c-1.88,-6.672 -7.282,-11.382 -12.388,-15.68c2.712,-6.5 5.501,-12.974 8.239,-19.458" style="fill-rule:nonzero;"/><path d="M243.103,860.557c-1.939,1.632 -3.168,3.933 -4.52,6.037c-1.419,2.427 -1.824,6.408 1.022,7.992c4.107,1.609 8.974,0.181 11.829,-3.109c1.583,-2.324 0.585,-5.635 -1.427,-7.374c-1.873,-1.748 -4.175,-3.819 -6.904,-3.546m3.743,-26.974c0.406,-1.98 2.723,-2.4 4.298,-1.484c5.058,2.27 9.561,6.457 11.16,11.894c2.501,12.727 -2.037,25.9 -9.361,36.277c-2.838,3.852 -6.549,7.869 -11.624,8.297c-2.77,0.495 -5.682,-0.313 -7.867,-2.055c-2.88,-4.162 -2.748,-9.814 -1.313,-14.491c2.031,-4.908 4.356,-9.715 7.094,-14.277c-0.816,-0.379 -1.625,-0.758 -2.432,-1.131c2.879,-7.883 7.366,-15.062 10.045,-23.03" style="fill-rule:nonzero;"/><path d="M519.485,844.192c0.387,-0.066 1.153,-0.199 1.539,-0.264c0.769,2.82 -0.517,5.575 -1.277,8.255c-1.495,4.322 -2.862,9.057 -6.551,12.075c-2.943,2.493 -5.427,5.595 -8.773,7.575c-2.196,1.376 -4.933,0.362 -7.251,1.22c-4.924,2.77 -8.672,7.911 -14.61,8.594c-5.771,0.908 -11.242,3.579 -17.139,3.447c0.561,-0.847 1.197,-1.656 2.095,-2.152c5.758,-3.894 12.066,-6.829 18.296,-9.866c5.692,-3.712 12.85,-6.037 16.149,-12.471c4.242,1.527 7.358,-2.623 8.719,-6.086c0.472,-2.236 3.233,-0.149 4.405,-1.478c2.326,-2.476 2.63,-6.055 4.398,-8.849" style="fill-rule:nonzero;"/></g></g></svg>