<?xml version="1.0" encoding="UTF-8" standalone="no"?>
<!DOCTYPE svg PUBLIC "-//W3C//DTD SVG 1.1//EN" "http://www.w3.org/Graphics/SVG/1.1/DTD/svg11.dtd">
<svg width="100%" height="100%" viewBox="0 0 1108 468" version="1.1" xmlns="http://www.w3.org/2000/svg" xmlns:xlink="http://www.w3.org/1999/xlink" xml:space="preserve" xmlns:serif="http://www.serif.com/" style="fill-rule:evenodd;clip-rule:evenodd;stroke-linecap:round;stroke-linejoin:round;stroke-miterlimit:1.5;">
    <g transform="matrix(1,0,0,1,-136.021,-233.258)">
        <g transform="matrix(1,0,0,1,-86.0263,84.2114)">
            <path d="M1064.31,276.345C1076.91,245.84 1057.26,231.577 1034.02,231.577L371.918,231.577C348.679,231.577 383.417,261.603 366.156,297.193L344.755,349.638C335.011,374.256 348.679,400 371.918,400L1034.02,400C1093.98,400 1031.43,355.311 1043.82,327.468L1064.31,276.345Z" style="fill:white;stroke:black;stroke-width:1px;"/>
        </g>
        <path d="M1137.22,315.789C1160.46,315.789 1180.12,330.052 1167.51,360.556L1147.02,411.68C1134.64,439.522 1197.18,484.211 1137.22,484.211L931.166,484.211C931.166,484.211 843.706,588.354 791.585,650.417C787.067,655.796 779.704,657.842 773.057,655.565C766.411,653.288 761.85,647.156 761.58,640.136C761.306,631.923 759.958,624.404 756.861,618.962C747.011,601.649 714.561,612.98 692.879,611.548C690.798,611.411 688.402,611.274 685.833,611.139C679.416,610.764 673.759,606.8 671.215,600.897C668.671,594.993 669.675,588.16 673.809,583.237C704.739,546.406 756.97,484.211 756.97,484.211L285.891,484.211C262.653,484.211 248.984,458.468 258.729,433.849L280.129,381.405C297.391,345.815 262.654,315.789 285.891,315.789L1137.22,315.789Z" style="fill:white;stroke:black;stroke-width:1px;"/>
        <g transform="matrix(1,0,0,1,-86.0263,84.2114)">
            <path d="M506.134,400L506.134,231.577L371.918,231.577C348.679,231.577 383.417,261.603 366.156,297.193L344.755,349.638C335.011,374.256 348.679,400 371.918,400L506.134,400Z" style="fill:white;stroke:black;stroke-width:1px;"/>
        </g>
        <g transform="matrix(1,0,0,1,35.5821,0)">
            <rect x="384.526" y="315.789" width="130.206" height="168.423" style="fill:white;stroke:black;stroke-width:1px;"/>
        </g>
        <g transform="matrix(1,0,0,1,165.788,0)">
            <rect x="384.526" y="315.789" width="130.206" height="168.423" style="fill:white;stroke:black;stroke-width:1px;"/>
        </g>
        <g transform="matrix(3.24501e-17,0.32502,-0.905956,3.40222e-17,574.955,136.297)">
            <path d="M416.446,246.484C400.913,246.484 388.303,241.96 388.303,236.387C388.303,230.815 400.913,226.291 416.446,226.291L641.675,226.291L669.817,236.387L641.675,246.484L416.446,246.484Z" style="fill:white;"/>
            <path d="M383.691,236.236L383.698,236.085L383.712,235.934L383.73,235.784L383.754,235.635L383.783,235.485L383.818,235.336L383.857,235.188L383.901,235.04L383.951,234.893L384.006,234.746L384.065,234.6L384.13,234.455L384.2,234.31L384.274,234.165L384.354,234.021L384.438,233.878L384.528,233.735L384.622,233.594L384.72,233.453L384.824,233.312L384.932,233.172L385.045,233.033L385.163,232.894L385.285,232.757L385.411,232.619L385.543,232.483L385.678,232.348L385.819,232.213L385.963,232.079L386.112,231.946L386.266,231.814L386.424,231.682L386.586,231.551L386.752,231.422L386.923,231.293L387.098,231.165L387.277,231.037L387.46,230.911L387.647,230.786L387.838,230.661L388.033,230.538L388.233,230.415L388.436,230.294L388.644,230.173L388.854,230.053L389.069,229.935L389.288,229.817L389.511,229.7L389.737,229.585L389.968,229.47L390.201,229.356L390.439,229.244L390.68,229.132L390.925,229.022L391.173,228.913L391.425,228.804L391.681,228.697L391.94,228.591L392.203,228.487L392.468,228.383L392.737,228.28L393.01,228.179L393.287,228.079L393.566,227.98L393.848,227.882L394.134,227.785L394.423,227.69L394.715,227.596L395.011,227.503L395.309,227.411L395.611,227.321L395.915,227.232L396.223,227.144L396.533,227.057L396.847,226.972L397.164,226.888L397.484,226.806L397.806,226.724L398.131,226.644L398.46,226.566L398.79,226.489L399.124,226.413L399.46,226.339L399.799,226.266L400.141,226.194L400.485,226.124L400.831,226.056L401.181,225.988L401.534,225.923L401.888,225.858L402.245,225.796L402.604,225.735L402.966,225.675L403.33,225.617L403.696,225.56L404.066,225.505L404.437,225.452L404.81,225.4L405.186,225.349L405.563,225.301L405.942,225.254L406.325,225.208L406.709,225.164L407.095,225.122L407.483,225.082L407.873,225.043L408.265,225.006L408.659,224.97L409.054,224.936L409.451,224.904L409.851,224.874L410.252,224.846L410.654,224.819L411.058,224.794L411.464,224.771L411.872,224.749L412.281,224.73L412.691,224.712L413.103,224.696L413.516,224.682L413.931,224.669L414.348,224.659L414.764,224.651L415.183,224.644L415.603,224.639L416.023,224.636L416.431,224.635L641.675,224.635L642.277,224.649L642.869,224.692L643.441,224.761L643.982,224.857L644.484,224.977L644.938,225.12L673.081,235.217L673.512,235.395L673.868,235.594L674.141,235.809L674.327,236.035L674.421,236.269L674.421,236.505L674.327,236.739L674.141,236.966L673.868,237.181L673.512,237.38L673.081,237.558L644.938,247.655L644.484,247.797L643.982,247.918L643.441,248.013L642.869,248.083L642.277,248.125L641.675,248.139L416.431,248.139L416.023,248.139L415.603,248.136L415.183,248.131L414.764,248.124L414.347,248.116L413.932,248.105L413.517,248.093L413.103,248.079L412.691,248.063L412.28,248.045L411.872,248.025L411.465,248.004L411.059,247.981L410.654,247.956L410.252,247.929L409.851,247.901L409.451,247.87L409.054,247.838L408.658,247.805L408.265,247.769L407.873,247.732L407.483,247.693L407.095,247.653L406.709,247.61L406.325,247.567L405.943,247.521L405.563,247.474L405.186,247.425L404.81,247.375L404.436,247.323L404.065,247.27L403.697,247.215L403.33,247.158L402.965,247.1L402.604,247.04L402.245,246.979L401.888,246.916L401.533,246.852L401.181,246.786L400.832,246.719L400.485,246.651L400.141,246.58L399.799,246.509L399.46,246.436L399.124,246.362L398.79,246.286L398.459,246.209L398.132,246.13L397.806,246.05L397.483,245.969L397.164,245.887L396.848,245.803L396.534,245.718L396.223,245.631L395.915,245.543L395.611,245.454L395.309,245.363L395.011,245.272L394.716,245.179L394.423,245.085L394.134,244.989L393.848,244.893L393.566,244.795L393.286,244.696L393.01,244.596L392.738,244.494L392.468,244.392L392.202,244.288L391.94,244.183L391.681,244.077L391.426,243.97L391.174,243.862L390.925,243.753L390.68,243.642L390.439,243.531L390.201,243.418L389.968,243.305L389.738,243.19L389.511,243.074L389.288,242.958L389.069,242.84L388.854,242.721L388.643,242.602L388.436,242.481L388.233,242.359L388.033,242.237L387.838,242.113L387.647,241.989L387.459,241.863L387.277,241.737L387.098,241.61L386.923,241.482L386.752,241.353L386.586,241.223L386.424,241.093L386.266,240.961L386.112,240.829L385.963,240.696L385.819,240.562L385.678,240.427L385.543,240.292L385.411,240.155L385.285,240.018L385.163,239.881L385.045,239.742L384.932,239.603L384.824,239.463L384.72,239.322L384.622,239.181L384.528,239.039L384.438,238.897L384.354,238.753L384.274,238.609L384.2,238.465L384.13,238.32L384.065,238.174L384.006,238.028L383.951,237.882L383.901,237.734L383.857,237.586L383.818,237.438L383.783,237.29L383.754,237.14L383.73,236.991L383.712,236.84L383.698,236.69L383.691,236.539L383.688,236.387L383.691,236.236ZM388.305,236.518L388.312,236.648L388.324,236.777L388.34,236.907L388.36,237.035L388.385,237.164L388.415,237.292L388.448,237.419L388.487,237.546L388.529,237.673L388.576,237.799L388.628,237.924L388.683,238.049L388.743,238.174L388.807,238.298L388.875,238.421L388.948,238.544L389.024,238.666L389.105,238.788L389.19,238.909L389.279,239.03L389.371,239.15L389.468,239.27L389.569,239.388L389.674,239.507L389.783,239.624L389.895,239.741L390.012,239.857L390.132,239.973L390.256,240.088L390.384,240.202L390.516,240.316L390.652,240.429L390.791,240.541L390.933,240.652L391.08,240.763L391.23,240.873L391.384,240.982L391.541,241.091L391.702,241.198L391.866,241.305L392.034,241.411L392.205,241.517L392.38,241.621L392.558,241.725L392.739,241.828L392.924,241.93L393.112,242.031L393.303,242.131L393.498,242.23L393.696,242.329L393.897,242.427L394.101,242.523L394.309,242.619L394.519,242.714L394.733,242.808L394.949,242.901L395.169,242.993L395.392,243.084L395.618,243.174L395.846,243.264L396.078,243.352L396.312,243.439L396.55,243.525L396.79,243.61L397.033,243.694L397.279,243.778L397.527,243.86L397.779,243.941L398.033,244.02L398.289,244.099L398.549,244.177L398.811,244.254L399.075,244.329L399.342,244.404L399.612,244.477L399.884,244.549L400.159,244.62L400.436,244.69L400.715,244.758L400.997,244.826L401.282,244.892L401.568,244.957L401.857,245.021L402.149,245.084L402.442,245.145L402.738,245.205L403.036,245.264L403.336,245.322L403.638,245.379L403.943,245.434L404.249,245.488L404.558,245.54L404.868,245.591L405.181,245.641L405.496,245.69L405.812,245.737L406.131,245.783L406.451,245.828L406.773,245.871L407.098,245.913L407.424,245.953L407.751,245.992L408.081,246.03L408.412,246.066L408.745,246.1L409.08,246.134L409.416,246.166L409.754,246.196L410.093,246.225L410.434,246.253L410.777,246.278L411.121,246.303L411.467,246.326L411.814,246.347L412.162,246.367L412.512,246.386L412.863,246.403L413.216,246.418L413.57,246.432L413.925,246.444L414.282,246.454L414.639,246.463L414.998,246.471L415.358,246.476L415.72,246.48L416.082,246.483L416.446,246.484L641.675,246.484L669.817,236.387L641.675,226.291L416.446,226.291L416.082,226.292L415.72,226.294L415.358,226.298L414.998,226.304L414.639,226.311L414.282,226.32L413.925,226.331L413.57,226.343L413.216,226.357L412.863,226.372L412.512,226.389L412.162,226.407L411.814,226.427L411.467,226.449L411.121,226.472L410.777,226.496L410.434,226.522L410.093,226.55L409.754,226.579L409.416,226.609L409.08,226.641L408.745,226.674L408.412,226.709L408.081,226.745L407.751,226.783L407.424,226.822L407.098,226.862L406.773,226.904L406.451,226.947L406.131,226.992L405.812,227.038L405.496,227.085L405.181,227.134L404.868,227.183L404.558,227.235L404.249,227.287L403.943,227.341L403.638,227.396L403.336,227.453L403.036,227.51L402.738,227.569L402.442,227.629L402.149,227.691L401.857,227.754L401.568,227.817L401.282,227.882L400.997,227.949L400.715,228.016L400.436,228.085L400.159,228.155L399.884,228.226L399.612,228.298L399.342,228.371L399.075,228.446L398.811,228.521L398.549,228.598L398.289,228.675L398.033,228.754L397.779,228.834L397.527,228.915L397.279,228.997L397.033,229.08L396.79,229.164L396.55,229.25L396.312,229.336L396.078,229.423L395.846,229.511L395.618,229.6L395.392,229.69L395.169,229.782L394.949,229.874L394.733,229.967L394.519,230.061L394.309,230.156L394.101,230.251L393.897,230.348L393.696,230.446L393.498,230.544L393.303,230.644L393.112,230.744L392.924,230.845L392.739,230.947L392.558,231.05L392.38,231.154L392.205,231.258L392.034,231.363L391.866,231.47L391.702,231.576L391.541,231.684L391.384,231.793L391.23,231.902L391.08,232.012L390.933,232.122L390.791,232.234L390.652,232.346L390.516,232.459L390.384,232.573L390.256,232.687L390.132,232.802L390.012,232.917L389.895,233.034L389.783,233.151L389.674,233.268L389.569,233.386L389.468,233.505L389.371,233.625L389.279,233.745L389.19,233.865L389.105,233.987L389.024,234.108L388.948,234.231L388.875,234.354L388.807,234.477L388.743,234.601L388.683,234.726L388.628,234.851L388.576,234.976L388.529,235.102L388.487,235.229L388.448,235.356L388.415,235.483L388.385,235.611L388.36,235.739L388.34,235.868L388.324,235.997L388.312,236.127L388.305,236.257L388.303,236.387L388.305,236.518Z" style="fill:rgb(142,0,36);"/>
        </g>
        <g transform="matrix(3.24501e-17,0.32502,-0.905253,3.39958e-17,703.416,136.297)">
            <path d="M416.424,246.484C400.904,246.484 388.303,241.96 388.303,236.387C388.303,230.815 400.904,226.291 416.424,226.291L641.696,226.291L669.817,236.387L641.696,246.484L416.424,246.484Z" style="fill:white;"/>
            <path d="M383.691,236.236L383.699,236.085L383.712,235.934L383.73,235.784L383.754,235.634L383.783,235.485L383.817,235.336L383.857,235.188L383.901,235.04L383.951,234.893L384.005,234.746L384.065,234.6L384.13,234.454L384.199,234.309L384.274,234.165L384.353,234.021L384.438,233.878L384.527,233.735L384.621,233.593L384.72,233.452L384.823,233.312L384.931,233.172L385.044,233.032L385.162,232.894L385.284,232.756L385.41,232.619L385.541,232.483L385.677,232.347L385.817,232.212L385.962,232.079L386.111,231.945L386.264,231.813L386.422,231.682L386.584,231.551L386.75,231.421L386.921,231.292L387.095,231.164L387.274,231.037L387.457,230.911L387.644,230.785L387.835,230.661L388.03,230.537L388.23,230.415L388.433,230.293L388.64,230.172L388.851,230.053L389.066,229.934L389.285,229.816L389.507,229.699L389.733,229.584L389.963,229.469L390.197,229.356L390.434,229.243L390.675,229.132L390.92,229.021L391.169,228.912L391.42,228.804L391.676,228.697L391.935,228.591L392.197,228.486L392.462,228.382L392.732,228.279L393.004,228.178L393.28,228.078L393.559,227.979L393.841,227.881L394.127,227.784L394.416,227.689L394.708,227.595L395.003,227.502L395.302,227.41L395.603,227.32L395.907,227.231L396.215,227.143L396.525,227.056L396.839,226.971L397.155,226.887L397.474,226.805L397.796,226.723L398.122,226.643L398.449,226.565L398.78,226.488L399.114,226.412L399.45,226.338L399.788,226.265L400.129,226.193L400.473,226.123L400.82,226.054L401.17,225.987L401.522,225.921L401.876,225.857L402.232,225.795L402.591,225.733L402.953,225.674L403.317,225.616L403.683,225.559L404.052,225.504L404.423,225.45L404.796,225.398L405.171,225.348L405.548,225.3L405.928,225.252L406.31,225.207L406.694,225.163L407.079,225.121L407.467,225.08L407.857,225.042L408.248,225.004L408.642,224.969L409.037,224.935L409.434,224.903L409.833,224.873L410.234,224.844L410.637,224.818L411.04,224.793L411.446,224.769L411.853,224.748L412.262,224.728L412.672,224.711L413.084,224.695L413.497,224.68L413.91,224.668L414.327,224.658L414.744,224.649L415.162,224.643L415.581,224.638L416.002,224.635L416.409,224.634L641.696,224.634L642.299,224.648L642.891,224.69L643.463,224.76L644.004,224.856L644.506,224.976L644.96,225.119L673.081,235.216L673.512,235.394L673.868,235.593L674.141,235.808L674.327,236.035L674.421,236.269L674.421,236.506L674.327,236.74L674.141,236.966L673.868,237.181L673.512,237.38L673.081,237.559L644.96,247.655L644.506,247.798L644.004,247.919L643.463,248.015L642.891,248.084L642.299,248.127L641.696,248.141L416.409,248.141L416.002,248.14L415.582,248.137L415.162,248.132L414.743,248.126L414.327,248.117L413.911,248.107L413.497,248.094L413.084,248.08L412.672,248.064L412.262,248.046L411.853,248.027L411.446,248.005L411.04,247.982L410.636,247.957L410.234,247.93L409.833,247.902L409.434,247.872L409.037,247.84L408.642,247.806L408.249,247.77L407.857,247.733L407.467,247.694L407.079,247.654L406.694,247.612L406.31,247.568L405.928,247.522L405.549,247.475L405.171,247.427L404.796,247.376L404.423,247.324L404.052,247.271L403.684,247.216L403.317,247.159L402.953,247.101L402.591,247.041L402.233,246.98L401.876,246.917L401.521,246.853L401.17,246.787L400.82,246.72L400.474,246.652L400.13,246.582L399.788,246.51L399.45,246.437L399.113,246.363L398.78,246.287L398.449,246.21L398.122,246.131L397.797,246.052L397.475,245.97L397.155,245.888L396.838,245.804L396.525,245.718L396.215,245.632L395.908,245.544L395.603,245.455L395.301,245.364L395.003,245.273L394.708,245.18L394.416,245.086L394.127,244.99L393.841,244.894L393.559,244.796L393.28,244.697L393.004,244.597L392.732,244.495L392.463,244.393L392.196,244.289L391.934,244.184L391.676,244.078L391.42,243.971L391.168,243.863L390.92,243.754L390.675,243.643L390.435,243.532L390.197,243.419L389.963,243.306L389.733,243.191L389.507,243.075L389.285,242.959L389.066,242.841L388.851,242.722L388.64,242.602L388.433,242.482L388.23,242.36L388.031,242.238L387.835,242.114L387.644,241.99L387.457,241.864L387.274,241.738L387.095,241.611L386.921,241.483L386.75,241.354L386.584,241.224L386.422,241.093L386.264,240.962L386.111,240.829L385.962,240.696L385.817,240.562L385.677,240.427L385.541,240.292L385.41,240.156L385.284,240.019L385.162,239.881L385.044,239.742L384.931,239.603L384.823,239.463L384.72,239.323L384.621,239.181L384.527,239.039L384.438,238.897L384.353,238.754L384.274,238.61L384.199,238.465L384.13,238.32L384.065,238.175L384.005,238.028L383.951,237.882L383.901,237.735L383.857,237.587L383.817,237.438L383.783,237.29L383.754,237.14L383.73,236.991L383.712,236.84L383.699,236.69L383.691,236.539L383.688,236.387L383.691,236.236ZM388.305,236.518L388.312,236.648L388.324,236.777L388.34,236.907L388.36,237.035L388.385,237.164L388.414,237.292L388.448,237.419L388.487,237.546L388.529,237.673L388.576,237.799L388.627,237.924L388.683,238.049L388.743,238.174L388.807,238.298L388.875,238.421L388.947,238.544L389.024,238.666L389.104,238.788L389.189,238.909L389.278,239.03L389.371,239.15L389.467,239.27L389.568,239.388L389.673,239.507L389.782,239.624L389.894,239.741L390.011,239.857L390.131,239.973L390.255,240.088L390.383,240.202L390.514,240.316L390.65,240.429L390.789,240.541L390.931,240.652L391.078,240.763L391.228,240.873L391.381,240.982L391.538,241.091L391.699,241.198L391.863,241.305L392.031,241.411L392.202,241.517L392.377,241.621L392.554,241.725L392.736,241.828L392.92,241.93L393.108,242.031L393.3,242.131L393.494,242.23L393.692,242.329L393.893,242.427L394.097,242.523L394.304,242.619L394.514,242.714L394.728,242.808L394.944,242.901L395.164,242.993L395.386,243.084L395.612,243.174L395.84,243.264L396.072,243.352L396.306,243.439L396.543,243.525L396.783,243.61L397.026,243.694L397.272,243.778L397.52,243.86L397.771,243.941L398.025,244.02L398.282,244.099L398.541,244.177L398.802,244.254L399.067,244.329L399.334,244.404L399.603,244.477L399.875,244.549L400.15,244.62L400.426,244.69L400.706,244.758L400.987,244.826L401.272,244.892L401.558,244.957L401.847,245.021L402.138,245.084L402.431,245.145L402.727,245.205L403.024,245.264L403.324,245.322L403.626,245.379L403.931,245.434L404.237,245.488L404.545,245.54L404.856,245.591L405.168,245.641L405.482,245.69L405.799,245.737L406.117,245.783L406.437,245.828L406.759,245.871L407.083,245.913L407.409,245.953L407.736,245.992L408.065,246.03L408.396,246.066L408.729,246.1L409.063,246.134L409.399,246.166L409.737,246.196L410.076,246.225L410.417,246.253L410.759,246.278L411.103,246.303L411.449,246.326L411.795,246.347L412.144,246.367L412.493,246.386L412.844,246.403L413.197,246.418L413.55,246.432L413.905,246.444L414.261,246.454L414.619,246.463L414.978,246.471L415.337,246.476L415.698,246.48L416.061,246.483L416.424,246.484L641.696,246.484L669.817,236.387L641.696,226.291L416.424,226.291L416.061,226.292L415.698,226.294L415.337,226.298L414.978,226.304L414.619,226.311L414.261,226.32L413.905,226.331L413.55,226.343L413.197,226.357L412.844,226.372L412.493,226.389L412.144,226.407L411.795,226.427L411.449,226.449L411.103,226.472L410.759,226.496L410.417,226.522L410.076,226.55L409.737,226.579L409.399,226.609L409.063,226.641L408.729,226.674L408.396,226.709L408.065,226.745L407.736,226.783L407.409,226.822L407.083,226.862L406.759,226.904L406.437,226.947L406.117,226.992L405.799,227.038L405.482,227.085L405.168,227.134L404.856,227.183L404.545,227.235L404.237,227.287L403.931,227.341L403.626,227.396L403.324,227.453L403.024,227.51L402.727,227.569L402.431,227.629L402.138,227.691L401.847,227.754L401.558,227.817L401.272,227.882L400.987,227.949L400.706,228.016L400.426,228.085L400.15,228.155L399.875,228.226L399.603,228.298L399.334,228.371L399.067,228.446L398.802,228.521L398.541,228.598L398.282,228.675L398.025,228.754L397.771,228.834L397.52,228.915L397.272,228.997L397.026,229.08L396.783,229.164L396.543,229.25L396.306,229.336L396.072,229.423L395.84,229.511L395.612,229.6L395.386,229.69L395.164,229.782L394.944,229.874L394.728,229.967L394.514,230.061L394.304,230.156L394.097,230.251L393.893,230.348L393.692,230.446L393.494,230.544L393.3,230.644L393.108,230.744L392.92,230.845L392.736,230.947L392.554,231.05L392.377,231.154L392.202,231.258L392.031,231.363L391.863,231.47L391.699,231.576L391.538,231.684L391.381,231.793L391.228,231.902L391.078,232.012L390.931,232.122L390.789,232.234L390.65,232.346L390.514,232.459L390.383,232.573L390.255,232.687L390.131,232.802L390.011,232.917L389.894,233.034L389.782,233.151L389.673,233.268L389.568,233.386L389.467,233.505L389.371,233.625L389.278,233.745L389.189,233.865L389.104,233.987L389.024,234.108L388.947,234.231L388.875,234.354L388.807,234.477L388.743,234.601L388.683,234.726L388.627,234.851L388.576,234.976L388.529,235.102L388.487,235.229L388.448,235.356L388.414,235.483L388.385,235.611L388.36,235.739L388.34,235.868L388.324,235.997L388.312,236.127L388.305,236.257L388.303,236.387L388.305,236.518Z" style="fill:rgb(142,0,36);"/>
        </g>
        <g transform="matrix(3.24501e-17,0.32502,-0.905253,3.39958e-17,830.349,136.297)">
            <path d="M416.424,246.484C400.904,246.484 388.303,241.96 388.303,236.387C388.303,230.815 400.904,226.291 416.424,226.291L641.696,226.291L669.817,236.387L641.696,246.484L416.424,246.484Z" style="fill:white;"/>
            <path d="M383.691,236.236L383.699,236.085L383.712,235.934L383.73,235.784L383.754,235.635L383.783,235.485L383.817,235.336L383.857,235.188L383.901,235.04L383.951,234.893L384.005,234.746L384.065,234.6L384.13,234.454L384.199,234.309L384.274,234.165L384.353,234.021L384.438,233.878L384.527,233.735L384.621,233.593L384.72,233.452L384.823,233.312L384.931,233.172L385.044,233.032L385.162,232.894L385.284,232.756L385.41,232.619L385.541,232.483L385.677,232.347L385.817,232.212L385.962,232.079L386.111,231.945L386.264,231.813L386.422,231.682L386.584,231.551L386.75,231.421L386.92,231.292L387.095,231.164L387.274,231.037L387.457,230.911L387.644,230.785L387.836,230.661L388.031,230.537L388.23,230.415L388.433,230.293L388.64,230.172L388.851,230.053L389.066,229.934L389.285,229.816L389.507,229.699L389.733,229.584L389.963,229.469L390.197,229.356L390.435,229.243L390.676,229.132L390.92,229.021L391.168,228.912L391.421,228.803L391.676,228.696L391.934,228.591L392.197,228.486L392.463,228.382L392.732,228.279L393.004,228.178L393.28,228.078L393.559,227.979L393.842,227.881L394.127,227.784L394.415,227.689L394.708,227.595L395.003,227.502L395.301,227.41L395.603,227.32L395.907,227.231L396.215,227.143L396.525,227.056L396.838,226.971L397.155,226.887L397.475,226.804L397.797,226.723L398.122,226.643L398.449,226.565L398.78,226.488L399.113,226.412L399.45,226.337L399.789,226.265L400.13,226.193L400.473,226.123L400.82,226.054L401.17,225.987L401.521,225.922L401.876,225.857L402.233,225.795L402.592,225.733L402.952,225.674L403.317,225.616L403.684,225.559L404.052,225.504L404.422,225.45L404.796,225.398L405.171,225.348L405.549,225.299L405.928,225.252L406.31,225.207L406.694,225.163L407.079,225.121L407.466,225.08L407.858,225.041L408.25,225.004L408.642,224.969L409.036,224.935L409.434,224.903L409.833,224.873L410.234,224.844L410.636,224.818L411.04,224.793L411.446,224.769L411.853,224.748L412.262,224.728L412.671,224.711L413.083,224.695L413.497,224.68L413.911,224.668L414.326,224.658L414.743,224.649L415.162,224.643L415.582,224.638L416.002,224.635L416.408,224.634L641.696,224.634L642.299,224.648L642.891,224.69L643.463,224.76L644.004,224.856L644.506,224.976L644.96,225.119L673.081,235.216L673.512,235.394L673.868,235.593L674.141,235.808L674.327,236.035L674.421,236.269L674.421,236.506L674.327,236.74L674.141,236.966L673.868,237.181L673.512,237.38L673.081,237.559L644.96,247.655L644.506,247.798L644.004,247.919L643.463,248.015L642.891,248.084L642.299,248.127L641.696,248.141L416.408,248.141L416.002,248.14L415.582,248.137L415.162,248.132L414.743,248.126L414.328,248.117L413.911,248.107L413.496,248.094L413.083,248.08L412.672,248.064L412.262,248.046L411.852,248.027L411.446,248.005L411.04,247.982L410.636,247.957L410.234,247.93L409.833,247.902L409.434,247.872L409.038,247.84L408.642,247.806L408.248,247.77L407.858,247.733L407.467,247.694L407.079,247.654L406.693,247.612L406.31,247.568L405.928,247.522L405.549,247.475L405.171,247.427L404.796,247.376L404.423,247.324L404.052,247.271L403.683,247.216L403.318,247.159L402.953,247.101L402.591,247.041L402.232,246.98L401.876,246.917L401.522,246.853L401.17,246.788L400.82,246.72L400.473,246.652L400.129,246.581L399.789,246.51L399.45,246.437L399.114,246.363L398.78,246.287L398.449,246.21L398.122,246.131L397.796,246.051L397.475,245.97L397.155,245.888L396.838,245.804L396.525,245.719L396.215,245.632L395.907,245.544L395.603,245.455L395.302,245.365L395.003,245.273L394.707,245.18L394.415,245.086L394.127,244.99L393.842,244.894L393.559,244.796L393.28,244.697L393.004,244.597L392.732,244.495L392.463,244.393L392.197,244.289L391.934,244.184L391.676,244.078L391.421,243.971L391.168,243.863L390.92,243.754L390.676,243.643L390.434,243.532L390.197,243.419L389.963,243.305L389.733,243.191L389.507,243.075L389.285,242.959L389.066,242.841L388.851,242.722L388.64,242.602L388.433,242.482L388.23,242.36L388.031,242.238L387.835,242.114L387.644,241.989L387.457,241.864L387.274,241.738L387.095,241.611L386.92,241.482L386.75,241.354L386.584,241.224L386.422,241.093L386.264,240.962L386.111,240.829L385.962,240.696L385.817,240.562L385.677,240.427L385.541,240.292L385.41,240.156L385.284,240.019L385.162,239.881L385.044,239.742L384.931,239.603L384.823,239.463L384.72,239.323L384.621,239.181L384.527,239.039L384.438,238.897L384.353,238.754L384.274,238.61L384.199,238.465L384.13,238.32L384.065,238.175L384.005,238.028L383.951,237.882L383.901,237.734L383.857,237.587L383.817,237.438L383.783,237.29L383.754,237.14L383.73,236.991L383.712,236.84L383.699,236.69L383.691,236.539L383.688,236.387L383.691,236.236ZM388.305,236.518L388.312,236.648L388.324,236.777L388.34,236.907L388.36,237.035L388.385,237.164L388.414,237.292L388.448,237.419L388.487,237.546L388.529,237.673L388.576,237.799L388.627,237.924L388.683,238.049L388.743,238.174L388.807,238.298L388.875,238.421L388.947,238.544L389.024,238.666L389.104,238.788L389.189,238.909L389.278,239.03L389.371,239.15L389.467,239.27L389.568,239.388L389.673,239.507L389.782,239.624L389.894,239.741L390.011,239.857L390.131,239.973L390.255,240.088L390.383,240.202L390.514,240.316L390.65,240.429L390.789,240.541L390.931,240.652L391.078,240.763L391.228,240.873L391.381,240.982L391.538,241.091L391.699,241.198L391.863,241.305L392.031,241.411L392.202,241.517L392.377,241.621L392.554,241.725L392.736,241.828L392.92,241.93L393.108,242.031L393.3,242.131L393.494,242.23L393.692,242.329L393.893,242.427L394.097,242.523L394.304,242.619L394.514,242.714L394.728,242.808L394.944,242.901L395.164,242.993L395.386,243.084L395.612,243.174L395.84,243.264L396.072,243.352L396.306,243.439L396.543,243.525L396.783,243.61L397.026,243.694L397.272,243.778L397.52,243.86L397.771,243.941L398.025,244.02L398.282,244.099L398.541,244.177L398.802,244.254L399.067,244.329L399.334,244.404L399.603,244.477L399.875,244.549L400.15,244.62L400.426,244.69L400.706,244.758L400.987,244.826L401.272,244.892L401.558,244.957L401.847,245.021L402.138,245.084L402.431,245.145L402.727,245.205L403.024,245.264L403.324,245.322L403.626,245.379L403.931,245.434L404.237,245.488L404.545,245.54L404.856,245.591L405.168,245.641L405.482,245.69L405.799,245.737L406.117,245.783L406.437,245.828L406.759,245.871L407.083,245.913L407.409,245.953L407.736,245.992L408.065,246.03L408.396,246.066L408.729,246.1L409.063,246.134L409.399,246.166L409.737,246.196L410.076,246.225L410.417,246.253L410.759,246.278L411.103,246.303L411.449,246.326L411.795,246.347L412.144,246.367L412.493,246.386L412.844,246.403L413.197,246.418L413.55,246.432L413.905,246.444L414.261,246.454L414.619,246.463L414.978,246.471L415.337,246.476L415.698,246.48L416.061,246.483L416.424,246.484L641.696,246.484L669.817,236.387L641.696,226.291L416.424,226.291L416.061,226.292L415.698,226.294L415.337,226.298L414.978,226.304L414.619,226.311L414.261,226.32L413.905,226.331L413.55,226.343L413.197,226.357L412.844,226.372L412.493,226.389L412.144,226.407L411.795,226.427L411.449,226.449L411.103,226.472L410.759,226.496L410.417,226.522L410.076,226.55L409.737,226.579L409.399,226.609L409.063,226.641L408.729,226.674L408.396,226.709L408.065,226.745L407.736,226.783L407.409,226.822L407.083,226.862L406.759,226.904L406.437,226.947L406.117,226.992L405.799,227.038L405.482,227.085L405.168,227.134L404.856,227.183L404.545,227.235L404.237,227.287L403.931,227.341L403.626,227.396L403.324,227.453L403.024,227.51L402.727,227.569L402.431,227.629L402.138,227.691L401.847,227.754L401.558,227.817L401.272,227.882L400.987,227.949L400.706,228.016L400.426,228.085L400.15,228.155L399.875,228.226L399.603,228.298L399.334,228.371L399.067,228.446L398.802,228.521L398.541,228.598L398.282,228.675L398.025,228.754L397.771,228.834L397.52,228.915L397.272,228.997L397.026,229.08L396.783,229.164L396.543,229.25L396.306,229.336L396.072,229.423L395.84,229.511L395.612,229.6L395.386,229.69L395.164,229.782L394.944,229.874L394.728,229.967L394.514,230.061L394.304,230.156L394.097,230.251L393.893,230.348L393.692,230.446L393.494,230.544L393.3,230.644L393.108,230.744L392.92,230.845L392.736,230.947L392.554,231.05L392.377,231.154L392.202,231.258L392.031,231.363L391.863,231.47L391.699,231.576L391.538,231.684L391.381,231.793L391.228,231.902L391.078,232.012L390.931,232.122L390.789,232.234L390.65,232.346L390.514,232.459L390.383,232.573L390.255,232.687L390.131,232.802L390.011,232.917L389.894,233.034L389.782,233.151L389.673,233.268L389.568,233.386L389.467,233.505L389.371,233.625L389.278,233.745L389.189,233.865L389.104,233.987L389.024,234.108L388.947,234.231L388.875,234.354L388.807,234.477L388.743,234.601L388.683,234.726L388.627,234.851L388.576,234.976L388.529,235.102L388.487,235.229L388.448,235.356L388.414,235.483L388.385,235.611L388.36,235.739L388.34,235.868L388.324,235.997L388.312,236.127L388.305,236.257L388.303,236.387L388.305,236.518Z" style="fill:rgb(142,0,36);"/>
        </g>
        <g transform="matrix(1,0,0,1,0.846833,58.6797)">
            <text x="304.976px" y="189.639px" style="font-family:'ArialMT', 'Arial', sans-serif;font-size:20px;stroke:rgb(142,0,36);stroke-width:1px;stroke-linecap:butt;stroke-miterlimit:1.41421;">Speed limit?</text>
        </g>
        <g transform="matrix(1,0,0,1,129.474,58.6797)">
            <text x="304.976px" y="189.639px" style="font-family:'ArialMT', 'Arial', sans-serif;font-size:20px;stroke:rgb(142,0,36);stroke-width:1px;stroke-linecap:butt;stroke-miterlimit:1.41421;">Speed limit?</text>
        </g>
        <g transform="matrix(1,0,0,1,256.407,58.6797)">
            <text x="304.976px" y="189.639px" style="font-family:'ArialMT', 'Arial', sans-serif;font-size:20px;stroke:rgb(142,0,36);stroke-width:1px;stroke-linecap:butt;stroke-miterlimit:1.41421;">Speed limit?</text>
        </g>
        <g transform="matrix(0.762521,0,0,1,80.2271,0)">
            <path d="M73.957,400.863L73.957,394.863L323.535,394.863L301.97,378.418L307.149,374.469L337.829,397.863L307.149,421.256L301.97,417.307L323.535,400.863L73.957,400.863Z"/>
            <path d="M307.506,373.935L307.706,374.045L338.385,397.439L338.53,397.59L338.606,397.769L338.606,397.957L338.53,398.135L338.385,398.287L307.706,421.681L307.506,421.791L307.272,421.849L307.026,421.849L306.792,421.791L306.593,421.681L301.414,417.731L301.269,417.58L301.193,417.401L301.193,417.213L301.269,417.035L301.414,416.883L321.636,401.463L73.957,401.463L73.714,401.434L73.494,401.349L73.32,401.216L73.209,401.049L73.17,400.863L73.17,394.863L73.209,394.677L73.32,394.51L73.494,394.377L73.714,394.292L73.957,394.263L321.636,394.263L301.414,378.843L301.269,378.691L301.193,378.512L301.193,378.325L301.269,378.146L301.414,377.994L306.593,374.045L306.792,373.935L307.026,373.877L307.272,373.877L307.506,373.935ZM301.97,378.418L323.535,394.863L73.957,394.863L73.957,400.863L323.535,400.863L301.97,417.307L307.149,421.256L337.829,397.863L307.149,374.469L301.97,378.418Z"/>
        </g>
        <g transform="matrix(0.762521,0,0,1,984.824,0)">
            <path d="M73.957,400.863L73.957,394.863L323.535,394.863L301.97,378.418L307.149,374.469L337.829,397.863L307.149,421.256L301.97,417.307L323.535,400.863L73.957,400.863Z"/>
            <path d="M307.506,373.935L307.706,374.045L338.385,397.439L338.53,397.59L338.606,397.769L338.606,397.957L338.53,398.135L338.385,398.287L307.706,421.681L307.506,421.791L307.272,421.849L307.026,421.849L306.792,421.791L306.593,421.681L301.414,417.731L301.269,417.58L301.193,417.401L301.193,417.213L301.269,417.035L301.414,416.883L321.636,401.463L73.957,401.463L73.714,401.434L73.494,401.349L73.32,401.216L73.209,401.049L73.17,400.863L73.17,394.863L73.209,394.677L73.32,394.51L73.494,394.377L73.714,394.292L73.957,394.263L321.636,394.263L301.414,378.843L301.269,378.691L301.193,378.512L301.193,378.325L301.269,378.146L301.414,377.994L306.593,374.045L306.792,373.935L307.026,373.877L307.272,373.877L307.506,373.935ZM301.97,378.418L323.535,394.863L73.957,394.863L73.957,400.863L323.535,400.863L301.97,417.307L307.149,421.256L337.829,397.863L307.149,374.469L301.97,378.418Z"/>
        </g>
        <g transform="matrix(0.49636,-0.578848,0.759124,0.650946,323.949,482.454)">
            <path d="M73.957,400.863L73.957,394.863L323.535,394.863L301.97,378.418L307.149,374.469L337.829,397.863L307.149,421.256L301.97,417.307L323.535,400.863L73.957,400.863Z"/>
            <path d="M338.53,397.59L338.606,397.769L338.606,397.957L338.53,398.135L338.385,398.287L307.706,421.681L307.506,421.791L307.272,421.849L307.026,421.849L306.792,421.791L306.593,421.681L301.414,417.731L301.269,417.58L301.193,417.401L301.193,417.213L301.269,417.035L301.414,416.883L321.636,401.463L73.957,401.463L73.714,401.434L73.494,401.348L73.32,401.216L73.209,401.048L73.17,400.863L73.17,394.863L73.209,394.677L73.32,394.51L73.494,394.377L73.714,394.292L73.957,394.263L321.636,394.263L301.414,378.843L301.269,378.691L301.193,378.512L301.193,378.325L301.269,378.146L301.414,377.994L306.593,374.045L306.792,373.935L307.026,373.877L307.272,373.877L307.506,373.935L307.706,374.045L338.385,397.439L338.53,397.59ZM307.149,374.469L301.97,378.418L323.535,394.863L73.957,394.863L73.957,400.863L323.535,400.863L301.97,417.307L307.149,421.256L337.829,397.863L307.149,374.469Z"/>
        </g>
        <g transform="matrix(1.48581,0,0,1.48581,-423.256,-188.218)">
            <g transform="matrix(0.742144,0,0,0.742144,239.102,98.8636)">
                <path d="M742.314,397.863C748.64,336.776 814.356,330.931 828.773,331.026C902.099,331.513 947.188,359.839 959.264,393.514C968.739,419.934 945.165,414.069 923.709,432.987C905.147,449.354 882.802,445.265 871.138,453.739C859.475,462.213 847.685,474.051 808.866,467.566C746.878,457.21 740.83,412.203 742.314,397.863Z" style="fill:rgb(255,147,147);"/>
                <path d="M828.776,330.482L829.636,330.489L830.493,330.499L831.348,330.511L832.199,330.525L833.049,330.543L833.895,330.562L834.74,330.584L835.581,330.609L836.42,330.636L837.256,330.666L838.09,330.698L838.921,330.732L839.75,330.769L840.576,330.809L841.399,330.851L842.22,330.895L843.038,330.942L843.853,330.991L844.666,331.043L845.476,331.097L846.284,331.153L847.089,331.212L847.892,331.273L848.691,331.336L849.488,331.402L850.283,331.47L851.075,331.541L851.864,331.614L852.651,331.689L853.435,331.767L854.216,331.847L854.995,331.929L855.771,332.013L856.545,332.1L857.316,332.189L858.084,332.28L858.85,332.374L859.612,332.47L860.373,332.568L861.13,332.668L861.885,332.771L862.638,332.876L863.387,332.983L864.135,333.092L864.879,333.203L865.621,333.317L866.36,333.433L867.096,333.551L867.83,333.671L868.561,333.793L869.289,333.918L870.015,334.044L870.738,334.173L871.459,334.304L872.176,334.437L872.892,334.572L873.604,334.709L874.314,334.849L875.021,334.99L875.725,335.134L876.427,335.279L877.126,335.427L877.822,335.577L878.516,335.728L879.207,335.882L879.895,336.038L880.58,336.196L881.263,336.356L881.943,336.518L882.621,336.681L883.295,336.847L883.968,337.015L884.637,337.185L885.304,337.357L885.967,337.531L886.629,337.706L887.287,337.884L887.943,338.064L888.596,338.245L889.246,338.429L889.894,338.614L890.539,338.801L891.181,338.991L891.821,339.182L892.458,339.375L893.092,339.57L893.723,339.766L894.352,339.965L894.977,340.165L895.601,340.367L896.221,340.572L896.839,340.778L897.453,340.985L898.066,341.195L898.675,341.406L899.282,341.619L899.886,341.834L900.487,342.051L901.085,342.27L901.681,342.49L902.274,342.712L902.864,342.936L903.452,343.161L904.036,343.388L904.618,343.617L905.197,343.848L905.774,344.08L906.347,344.314L906.918,344.55L907.486,344.788L908.052,345.027L908.614,345.268L909.174,345.51L909.731,345.754L910.285,346L910.837,346.247L911.386,346.496L911.931,346.747L912.475,346.999L913.015,347.253L913.552,347.509L914.087,347.766L914.619,348.024L915.148,348.285L915.675,348.546L916.198,348.81L916.719,349.075L917.237,349.341L917.752,349.609L918.265,349.878L918.774,350.149L919.281,350.422L919.785,350.696L920.286,350.972L920.785,351.249L921.28,351.527L921.773,351.807L922.263,352.088L922.75,352.371L923.234,352.655L923.716,352.941L924.194,353.228L924.67,353.517L925.143,353.807L925.613,354.098L926.08,354.391L926.545,354.685L927.007,354.981L927.465,355.278L927.921,355.576L928.375,355.876L928.825,356.177L929.272,356.479L929.717,356.783L930.159,357.088L930.598,357.395L931.034,357.702L931.467,358.011L931.897,358.322L932.325,358.633L932.749,358.946L933.171,359.26L933.59,359.575L934.006,359.892L934.419,360.21L934.625,360.369L934.83,360.529L935.034,360.689L935.237,360.85L935.44,361.01L935.641,361.171L935.843,361.332L936.043,361.494L936.243,361.656L936.442,361.818L936.64,361.98L936.838,362.143L937.035,362.306L937.231,362.47L937.427,362.633L937.621,362.797L937.815,362.961L938.009,363.126L938.201,363.291L938.393,363.456L938.584,363.621L938.775,363.787L938.964,363.953L939.153,364.119L939.341,364.286L939.529,364.453L939.716,364.62L939.902,364.787L940.087,364.955L940.272,365.123L940.456,365.291L940.639,365.46L940.821,365.628L941.003,365.797L941.184,365.967L941.364,366.136L941.544,366.306L941.723,366.477L941.901,366.647L942.078,366.818L942.255,366.989L942.431,367.16L942.606,367.332L942.78,367.503L942.954,367.675L943.127,367.848L943.3,368.02L943.471,368.193L943.642,368.366L943.812,368.54L943.981,368.713L944.15,368.887L944.318,369.062L944.485,369.236L944.652,369.411L944.817,369.586L944.982,369.761L945.147,369.936L945.31,370.112L945.473,370.288L945.635,370.464L945.796,370.64L945.957,370.817L946.117,370.994L946.276,371.171L946.434,371.349L946.592,371.526L946.749,371.704L946.905,371.883L947.061,372.061L947.216,372.24L947.37,372.419L947.523,372.598L947.675,372.777L947.827,372.957L947.978,373.136L948.129,373.317L948.278,373.497L948.427,373.677L948.575,373.858L948.723,374.039L948.869,374.22L949.015,374.402L949.161,374.584L949.305,374.765L949.449,374.948L949.592,375.13L949.734,375.313L949.876,375.495L950.016,375.678L950.156,375.862L950.296,376.045L950.434,376.229L950.572,376.413L950.709,376.597L950.845,376.781L950.981,376.966L951.116,377.15L951.25,377.336L951.383,377.521L951.516,377.706L951.648,377.892L951.779,378.078L951.909,378.264L952.039,378.45L952.168,378.636L952.296,378.823L952.424,379.01L952.55,379.197L952.676,379.384L952.802,379.572L952.926,379.759L953.05,379.947L953.173,380.135L953.295,380.323L953.416,380.512L953.537,380.7L953.657,380.889L953.777,381.078L953.895,381.267L954.013,381.457L954.13,381.646L954.246,381.836L954.362,382.026L954.477,382.216L954.591,382.407L954.704,382.597L954.816,382.788L954.928,382.979L955.039,383.17L955.149,383.361L955.259,383.553L955.368,383.744L955.476,383.936L955.583,384.128L955.69,384.32L955.796,384.512L955.901,384.705L956.005,384.898L956.108,385.09L956.211,385.283L956.313,385.476L956.415,385.67L956.515,385.863L956.615,386.057L956.714,386.251L956.812,386.445L956.91,386.639L957.007,386.833L957.103,387.028L957.198,387.222L957.293,387.417L957.386,387.612L957.479,387.807L957.572,388.003L957.663,388.198L957.754,388.394L957.844,388.589L957.933,388.785L958.022,388.981L958.109,389.177L958.196,389.374L958.283,389.57L958.368,389.767L958.453,389.964L958.537,390.161L958.62,390.358L958.702,390.555L958.784,390.752L958.865,390.95L958.945,391.147L959.024,391.345L959.103,391.543L959.181,391.741L959.258,391.939L959.334,392.137L959.41,392.336L959.485,392.535L959.559,392.733L959.632,392.932L959.705,393.131L959.777,393.33L959.887,393.641L959.995,393.949L960.099,394.255L960.201,394.557L960.3,394.857L960.395,395.154L960.488,395.448L960.578,395.739L960.664,396.028L960.748,396.314L960.829,396.597L960.907,396.878L960.983,397.156L961.055,397.432L961.124,397.705L961.191,397.975L961.255,398.243L961.316,398.508L961.374,398.771L961.43,399.031L961.482,399.289L961.532,399.544L961.579,399.797L961.623,400.048L961.665,400.296L961.703,400.542L961.739,400.786L961.773,401.027L961.803,401.266L961.831,401.503L961.856,401.737L961.879,401.97L961.899,402.2L961.916,402.428L961.931,402.654L961.942,402.877L961.952,403.099L961.958,403.318L961.962,403.536L961.964,403.751L961.962,403.964L961.959,404.176L961.952,404.385L961.943,404.592L961.932,404.798L961.917,405.001L961.901,405.202L961.882,405.402L961.86,405.6L961.836,405.795L961.809,405.989L961.78,406.181L961.748,406.372L961.714,406.56L961.677,406.747L961.638,406.932L961.596,407.115L961.552,407.296L961.505,407.475L961.457,407.653L961.405,407.829L961.351,408.003L961.295,408.176L961.237,408.347L961.176,408.516L961.113,408.684L961.048,408.85L960.98,409.014L960.91,409.177L960.837,409.338L960.763,409.498L960.686,409.656L960.607,409.812L960.526,409.967L960.442,410.12L960.357,410.272L960.269,410.422L960.179,410.571L960.087,410.718L959.993,410.864L959.897,411.009L959.799,411.151L959.698,411.293L959.596,411.433L959.492,411.572L959.386,411.709L959.277,411.845L959.167,411.98L959.055,412.113L958.941,412.246L958.825,412.377L958.707,412.506L958.588,412.635L958.466,412.762L958.343,412.888L958.218,413.013L958.091,413.137L957.962,413.259L957.832,413.381L957.7,413.502L957.566,413.621L957.43,413.739L957.293,413.857L957.154,413.973L957.014,414.089L956.871,414.204L956.728,414.317L956.582,414.43L956.435,414.542L956.286,414.653L956.136,414.763L955.984,414.873L955.831,414.982L955.676,415.09L955.52,415.197L955.362,415.304L955.202,415.41L955.042,415.515L954.879,415.62L954.716,415.724L954.55,415.827L954.384,415.93L954.216,416.032L954.046,416.134L953.875,416.235L953.703,416.336L953.53,416.437L953.355,416.537L953.178,416.636L953.001,416.736L952.822,416.835L952.642,416.933L952.46,417.031L952.277,417.129L952.093,417.227L951.908,417.324L951.721,417.422L951.534,417.519L951.345,417.615L951.154,417.712L950.77,417.905L950.382,418.097L949.988,418.29L949.59,418.482L949.188,418.674L948.782,418.867L948.371,419.06L947.956,419.254L947.537,419.449L947.114,419.644L946.257,420.039L945.385,420.44L944.499,420.848L944.052,421.055L943.601,421.264L943.147,421.476L942.69,421.69L942.23,421.907L941.767,422.128L941.302,422.351L940.834,422.578L940.364,422.808L939.891,423.041L939.416,423.279L938.938,423.52L938.699,423.642L938.459,423.765L938.218,423.89L937.977,424.015L937.736,424.142L937.494,424.269L937.251,424.398L937.009,424.528L936.765,424.659L936.522,424.791L936.278,424.925L936.033,425.06L935.788,425.196L935.543,425.333L935.297,425.472L935.051,425.612L934.805,425.753L934.558,425.896L934.311,426.04L934.064,426.185L933.817,426.332L933.569,426.481L933.321,426.631L933.073,426.782L932.824,426.935L932.575,427.089L932.326,427.245L932.077,427.403L931.828,427.562L931.578,427.722L931.329,427.885L931.079,428.049L930.829,428.214L930.579,428.382L930.328,428.551L930.078,428.722L929.828,428.894L929.577,429.069L929.326,429.245L929.076,429.423L928.825,429.603L928.574,429.784L928.324,429.968L928.073,430.153L927.822,430.341L927.571,430.53L927.321,430.721L927.07,430.915L926.819,431.11L926.569,431.307L926.318,431.506L926.068,431.708L925.817,431.911L925.567,432.117L925.317,432.325L925.067,432.534L924.817,432.746L924.568,432.96L924.318,433.177L924.068,433.396L923.849,433.588L923.628,433.779L923.408,433.968L923.187,434.156L922.965,434.341L922.744,434.525L922.522,434.707L922.299,434.887L922.077,435.065L921.854,435.241L921.63,435.416L921.407,435.589L921.183,435.76L920.959,435.929L920.734,436.097L920.51,436.263L920.285,436.427L920.06,436.59L919.834,436.751L919.608,436.91L919.382,437.067L919.156,437.223L918.93,437.378L918.703,437.53L918.476,437.681L918.249,437.831L918.022,437.979L917.794,438.125L917.567,438.27L917.339,438.413L917.111,438.555L916.882,438.695L916.654,438.833L916.425,438.971L916.197,439.106L915.968,439.24L915.739,439.373L915.509,439.504L915.28,439.634L915.05,439.762L914.821,439.889L914.591,440.015L914.361,440.139L914.131,440.262L913.901,440.383L913.671,440.503L913.44,440.622L913.21,440.739L912.979,440.855L912.749,440.97L912.518,441.083L912.287,441.195L912.056,441.306L911.825,441.416L911.595,441.524L911.364,441.631L911.133,441.737L910.901,441.842L910.67,441.945L910.439,442.047L910.208,442.148L909.977,442.248L909.746,442.347L909.515,442.445L909.283,442.541L909.052,442.636L908.821,442.73L908.59,442.824L908.359,442.916L908.128,443.007L907.896,443.096L907.665,443.185L907.435,443.273L907.203,443.36L906.973,443.446L906.742,443.53L906.511,443.614L906.28,443.697L906.05,443.779L905.819,443.86L905.589,443.94L905.358,444.018L905.128,444.097L904.898,444.174L904.668,444.25L904.438,444.325L904.208,444.4L903.979,444.474L903.749,444.546L903.52,444.618L903.29,444.69L903.061,444.76L902.832,444.829L902.603,444.898L902.375,444.966L902.146,445.034L901.69,445.166L901.234,445.295L900.779,445.422L900.325,445.545L899.872,445.667L899.419,445.785L898.968,445.901L898.517,446.015L898.068,446.127L897.62,446.236L897.172,446.344L896.726,446.449L896.282,446.553L895.838,446.655L895.396,446.755L894.955,446.854L894.515,446.951L894.077,447.047L893.64,447.142L893.205,447.235L892.771,447.327L892.339,447.419L891.48,447.598L890.628,447.776L889.782,447.951L888.945,448.124L888.115,448.297L887.293,448.47L886.886,448.557L886.48,448.644L886.077,448.732L885.676,448.82L885.278,448.909L884.881,448.998L884.487,449.088L884.096,449.179L883.707,449.271L883.321,449.365L882.937,449.459L882.556,449.554L882.177,449.651L881.802,449.749L881.429,449.849L881.058,449.95L880.691,450.053L880.326,450.158L880.145,450.211L879.965,450.265L879.785,450.319L879.606,450.374L879.428,450.429L879.251,450.484L879.074,450.541L878.898,450.597L878.723,450.655L878.549,450.712L878.375,450.771L878.202,450.83L878.03,450.89L877.859,450.95L877.689,451.011L877.519,451.072L877.351,451.134L877.183,451.197L877.016,451.261L876.849,451.325L876.684,451.39L876.519,451.455L876.356,451.521L876.193,451.588L876.031,451.656L875.87,451.725L875.709,451.794L875.55,451.864L875.391,451.935L875.234,452.006L875.077,452.078L874.921,452.152L874.766,452.226L874.612,452.3L874.459,452.376L874.307,452.453L874.155,452.53L874.005,452.608L873.855,452.687L873.707,452.768L873.559,452.848L873.412,452.93L873.266,453.013L873.121,453.097L872.978,453.182L872.835,453.267L872.693,453.354L872.552,453.442L872.411,453.53L872.272,453.62L872.134,453.71L871.997,453.802L871.861,453.895L871.725,453.989L871.591,454.083L871.457,454.18L871.186,454.378L870.913,454.577L870.64,454.778L870.368,454.98L869.819,455.387L869.269,455.798L868.158,456.629L867.596,457.048L867.03,457.469L866.744,457.681L866.458,457.892L866.169,458.103L865.879,458.315L865.588,458.527L865.294,458.738L864.999,458.95L864.701,459.162L864.402,459.373L864.101,459.584L863.797,459.795L863.492,460.005L863.184,460.215L862.873,460.424L862.561,460.633L862.245,460.841L861.927,461.049L861.606,461.256L861.283,461.462L860.957,461.667L860.627,461.871L860.295,462.074L859.96,462.275L859.622,462.476L859.281,462.675L859.108,462.775L858.935,462.874L858.762,462.972L858.587,463.071L858.411,463.169L858.235,463.266L858.058,463.363L857.88,463.46L857.701,463.557L857.521,463.653L857.34,463.748L857.159,463.843L856.976,463.938L856.793,464.032L856.608,464.126L856.423,464.22L856.236,464.313L856.049,464.405L855.86,464.497L855.671,464.589L855.48,464.68L855.289,464.771L855.096,464.861L854.903,464.95L854.708,465.039L854.513,465.128L854.316,465.216L854.118,465.304L853.919,465.39L853.719,465.477L853.518,465.563L853.316,465.648L853.113,465.733L852.908,465.817L852.703,465.9L852.496,465.983L852.288,466.065L852.079,466.147L851.869,466.228L851.657,466.308L851.445,466.388L851.231,466.467L851.016,466.545L850.8,466.623L850.582,466.7L850.364,466.776L850.144,466.852L849.922,466.927L849.7,467.001L849.476,467.075L849.251,467.148L849.025,467.22L848.797,467.291L848.568,467.362L848.338,467.431L848.106,467.5L847.873,467.569L847.639,467.636L847.403,467.703L847.166,467.769L846.928,467.834L846.688,467.898L846.447,467.962L846.204,468.024L845.96,468.086L845.714,468.147L845.468,468.207L845.219,468.267L844.969,468.325L844.718,468.382L844.465,468.439L844.211,468.495L843.955,468.55L843.698,468.604L843.439,468.657L843.179,468.709L842.917,468.76L842.654,468.81L842.389,468.859L842.123,468.908L841.855,468.955L841.585,469.001L841.314,469.047L841.041,469.091L840.767,469.135L840.491,469.177L840.213,469.219L839.934,469.259L839.653,469.299L839.371,469.337L839.087,469.374L838.801,469.411L838.513,469.446L838.224,469.48L837.933,469.513L837.64,469.545L837.346,469.576L837.05,469.606L836.752,469.635L836.453,469.662L836.152,469.689L835.848,469.714L835.544,469.739L835.237,469.762L834.929,469.784L834.618,469.805L834.306,469.825L833.993,469.843L833.677,469.86L833.359,469.877L833.04,469.892L832.719,469.905L832.396,469.918L832.071,469.929L831.744,469.94L831.415,469.948L831.085,469.956L830.752,469.963L830.418,469.968L830.081,469.972L829.743,469.974L829.403,469.976L829.06,469.976L828.716,469.975L828.37,469.972L828.022,469.968L827.671,469.963L827.319,469.957L826.965,469.949L826.609,469.94L826.25,469.93L825.89,469.918L825.528,469.905L825.163,469.89L824.797,469.874L824.428,469.857L824.057,469.839L823.684,469.818L823.309,469.797L822.932,469.774L822.553,469.75L822.172,469.724L821.788,469.697L821.402,469.669L821.014,469.639L820.624,469.607L820.232,469.574L819.838,469.54L819.441,469.504L819.042,469.466L818.641,469.427L818.238,469.387L817.832,469.345L817.424,469.302L817.014,469.257L816.601,469.21L816.187,469.162L815.77,469.113L815.35,469.062L814.929,469.009L814.505,468.955L814.078,468.899L813.65,468.841L813.219,468.782L812.785,468.722L812.35,468.66L811.911,468.596L811.471,468.53L811.028,468.463L810.583,468.394L810.135,468.324L809.684,468.252L809.232,468.178L808.777,468.103L808.413,468.041L808.05,467.979L807.689,467.916L807.328,467.853L806.969,467.788L806.612,467.723L806.255,467.657L805.9,467.59L805.546,467.522L805.194,467.454L804.842,467.385L804.492,467.315L804.143,467.244L803.796,467.173L803.449,467.101L803.104,467.028L802.76,466.954L802.418,466.88L802.076,466.805L801.736,466.729L801.397,466.652L801.059,466.575L800.723,466.496L800.388,466.418L800.054,466.338L799.721,466.258L799.389,466.177L799.059,466.095L798.73,466.012L798.402,465.929L798.075,465.845L797.75,465.761L797.425,465.675L797.102,465.589L796.78,465.503L796.46,465.415L796.14,465.327L795.822,465.238L795.505,465.149L795.189,465.059L794.874,464.968L794.561,464.876L794.248,464.784L793.937,464.691L793.627,464.598L793.318,464.503L793.011,464.408L792.704,464.313L792.399,464.217L792.095,464.12L791.792,464.022L791.49,463.924L791.19,463.825L790.891,463.726L790.592,463.626L790.295,463.525L789.999,463.424L789.704,463.322L789.411,463.219L789.118,463.116L788.827,463.012L788.537,462.907L788.248,462.802L787.96,462.696L787.673,462.59L787.388,462.483L787.103,462.375L786.82,462.267L786.538,462.158L786.257,462.049L785.977,461.939L785.698,461.829L785.42,461.717L785.143,461.606L784.868,461.493L784.594,461.38L784.32,461.267L784.048,461.153L783.777,461.038L783.507,460.923L783.239,460.807L782.971,460.691L782.704,460.574L782.439,460.457L782.174,460.339L781.911,460.22L781.649,460.101L781.388,459.981L781.128,459.861L780.869,459.74L780.611,459.619L780.354,459.497L780.099,459.375L779.844,459.252L779.591,459.129L779.338,459.005L779.087,458.881L778.836,458.756L778.587,458.63L778.339,458.504L778.092,458.378L777.846,458.251L777.601,458.123L777.357,457.995L777.114,457.867L776.872,457.738L776.632,457.608L776.392,457.478L776.153,457.348L775.916,457.217L775.679,457.086L775.444,456.954L775.209,456.821L774.976,456.689L774.743,456.555L774.512,456.422L774.282,456.287L774.052,456.153L773.824,456.018L773.597,455.882L773.37,455.746L773.145,455.61L772.921,455.473L772.698,455.335L772.476,455.198L772.254,455.059L772.034,454.921L771.815,454.782L771.597,454.642L771.38,454.502L771.164,454.362L770.949,454.221L770.734,454.08L770.521,453.938L770.309,453.796L770.098,453.654L769.888,453.511L769.679,453.368L769.47,453.224L769.263,453.08L769.057,452.936L768.852,452.791L768.647,452.646L768.444,452.5L768.242,452.355L768.04,452.208L767.84,452.062L767.641,451.915L767.442,451.767L767.245,451.619L767.048,451.471L766.852,451.323L766.658,451.174L766.464,451.025L766.271,450.875L766.08,450.725L765.889,450.575L765.699,450.425L765.51,450.274L765.322,450.122L765.135,449.971L764.949,449.819L764.763,449.667L764.579,449.514L764.396,449.361L764.213,449.208L764.032,449.055L763.851,448.901L763.672,448.747L763.493,448.592L763.315,448.438L763.138,448.283L762.962,448.127L762.787,447.972L762.613,447.816L762.44,447.66L762.268,447.503L762.096,447.347L761.926,447.189L761.756,447.032L761.587,446.875L761.419,446.717L761.252,446.559L761.086,446.4L760.921,446.242L760.757,446.083L760.593,445.924L760.431,445.764L760.269,445.605L760.108,445.445L759.948,445.285L759.789,445.124L759.631,444.964L759.474,444.803L759.317,444.642L759.162,444.48L759.007,444.319L758.853,444.157L758.7,443.995L758.548,443.833L758.397,443.671L758.247,443.508L758.097,443.345L757.948,443.182L757.8,443.019L757.653,442.856L757.507,442.692L757.362,442.528L757.217,442.364L757.074,442.2L756.931,442.036L756.789,441.871L756.647,441.707L756.507,441.542L756.367,441.377L756.229,441.212L756.091,441.046L755.954,440.881L755.817,440.715L755.682,440.549L755.547,440.383L755.414,440.217L755.28,440.051L755.148,439.884L755.017,439.718L754.886,439.551L754.756,439.384L754.627,439.217L754.499,439.05L754.372,438.883L754.245,438.715L754.119,438.548L753.994,438.38L753.87,438.212L753.746,438.045L753.623,437.877L753.501,437.709L753.38,437.54L753.14,437.204L752.903,436.867L752.669,436.53L752.438,436.192L752.21,435.854L751.985,435.516L751.763,435.177L751.544,434.839L751.328,434.5L751.115,434.161L750.905,433.821L750.698,433.482L750.493,433.142L750.292,432.803L750.093,432.463L749.897,432.123L749.704,431.784L749.514,431.444L749.326,431.104L749.141,430.765L748.959,430.425L748.78,430.086L748.604,429.746L748.43,429.407L748.258,429.068L748.09,428.729L747.924,428.391L747.761,428.052L747.6,427.714L747.442,427.376L747.286,427.039L747.133,426.702L746.983,426.365L746.835,426.028L746.689,425.693L746.546,425.357L746.406,425.022L746.268,424.687L746.132,424.353L745.999,424.019L745.868,423.686L745.739,423.354L745.613,423.022L745.489,422.691L745.368,422.36L745.249,422.03L745.132,421.701L745.017,421.372L744.905,421.044L744.794,420.717L744.687,420.391L744.581,420.065L744.477,419.741L744.376,419.417L744.277,419.094L744.18,418.772L744.084,418.451L743.992,418.131L743.901,417.812L743.812,417.493L743.725,417.176L743.64,416.86L743.558,416.545L743.477,416.231L743.398,415.918L743.321,415.606L743.246,415.296L743.174,414.986L743.102,414.678L743.033,414.371L742.966,414.066L742.9,413.761L742.837,413.458L742.775,413.156L742.715,412.856L742.657,412.557L742.6,412.259L742.545,411.962L742.492,411.668L742.441,411.374L742.391,411.082L742.343,410.792L742.297,410.503L742.253,410.216L742.21,409.93L742.168,409.646L742.128,409.363L742.09,409.082L742.053,408.803L742.018,408.525L741.984,408.249L741.952,407.975L741.921,407.703L741.892,407.432L741.864,407.164L741.838,406.897L741.813,406.632L741.789,406.368L741.767,406.107L741.746,405.848L741.727,405.59L741.709,405.335L741.692,405.081L741.676,404.83L741.662,404.58L741.649,404.333L741.637,404.088L741.627,403.844L741.617,403.603L741.609,403.364L741.602,403.128L741.596,402.893L741.591,402.661L741.588,402.431L741.585,402.203L741.584,401.977L741.583,401.754L741.584,401.533L741.586,401.314L741.588,401.098L741.592,400.884L741.597,400.673L741.602,400.464L741.609,400.257L741.617,400.053L741.625,399.852L741.634,399.653L741.645,399.457L741.656,399.263L741.668,399.071L741.68,398.883L741.694,398.697L741.708,398.513L741.723,398.333L741.739,398.155L741.756,397.979L741.773,397.807L741.811,397.447L741.851,397.089L741.891,396.732L741.933,396.376L741.977,396.022L742.021,395.668L742.068,395.316L742.115,394.966L742.164,394.616L742.214,394.268L742.265,393.921L742.318,393.575L742.372,393.23L742.427,392.887L742.484,392.545L742.542,392.204L742.601,391.864L742.661,391.526L742.723,391.189L742.786,390.853L742.851,390.518L742.916,390.184L742.983,389.852L743.051,389.521L743.121,389.191L743.191,388.862L743.263,388.535L743.336,388.208L743.411,387.883L743.486,387.559L743.563,387.237L743.641,386.915L743.72,386.595L743.8,386.276L743.882,385.958L743.965,385.641L744.049,385.325L744.134,385.011L744.22,384.698L744.308,384.386L744.397,384.075L744.487,383.765L744.578,383.456L744.67,383.149L744.763,382.843L744.858,382.538L744.953,382.234L745.05,381.931L745.148,381.63L745.247,381.329L745.347,381.03L745.449,380.732L745.551,380.435L745.655,380.139L745.759,379.845L745.865,379.551L745.972,379.259L746.08,378.968L746.189,378.678L746.299,378.389L746.41,378.101L746.522,377.814L746.635,377.529L746.75,377.244L746.865,376.961L746.982,376.679L747.099,376.398L747.218,376.118L747.337,375.839L747.458,375.562L747.579,375.285L747.702,375.01L747.825,374.735L747.95,374.462L748.076,374.19L748.202,373.919L748.33,373.649L748.459,373.38L748.588,373.113L748.719,372.846L748.85,372.581L748.983,372.316L749.117,372.053L749.251,371.791L749.386,371.529L749.523,371.269L749.66,371.01L749.798,370.752L749.937,370.496L750.077,370.24L750.219,369.985L750.36,369.731L750.503,369.479L750.647,369.227L750.792,368.977L750.937,368.728L751.084,368.479L751.231,368.232L751.379,367.986L751.528,367.741L751.678,367.497L751.829,367.254L751.981,367.012L752.133,366.771L752.287,366.531L752.441,366.292L752.596,366.054L752.752,365.817L752.909,365.582L753.067,365.347L753.225,365.113L753.384,364.881L753.544,364.649L753.705,364.418L753.867,364.189L754.029,363.96L754.192,363.733L754.356,363.506L754.521,363.281L754.687,363.056L754.853,362.833L755.02,362.61L755.188,362.389L755.357,362.168L755.526,361.949L755.696,361.73L755.867,361.513L756.039,361.296L756.211,361.081L756.384,360.866L756.558,360.653L756.733,360.44L756.908,360.229L757.084,360.018L757.26,359.809L757.438,359.6L757.616,359.393L757.794,359.186L757.974,358.98L758.154,358.776L758.335,358.572L758.516,358.369L758.698,358.167L758.881,357.966L759.064,357.766L759.248,357.568L759.433,357.37L759.618,357.172L759.804,356.976L759.99,356.781L760.178,356.587L760.365,356.394L760.554,356.201L760.743,356.01L760.932,355.82L761.122,355.63L761.313,355.442L761.505,355.254L761.696,355.067L761.889,354.881L762.082,354.697L762.276,354.513L762.47,354.33L762.665,354.147L762.86,353.966L763.056,353.786L763.252,353.607L763.449,353.428L763.646,353.25L763.844,353.074L764.043,352.898L764.242,352.723L764.441,352.549L764.641,352.376L764.842,352.204L765.043,352.033L765.244,351.862L765.446,351.693L765.649,351.524L765.851,351.356L766.055,351.189L766.259,351.023L766.463,350.858L766.668,350.694L766.873,350.531L767.079,350.368L767.285,350.206L767.491,350.046L767.698,349.886L767.905,349.727L768.113,349.568L768.321,349.411L768.53,349.254L768.739,349.099L768.948,348.944L769.158,348.79L769.368,348.637L769.579,348.484L769.79,348.333L770.001,348.182L770.213,348.033L770.425,347.884L770.637,347.735L770.85,347.588L771.063,347.442L771.277,347.296L771.49,347.151L771.704,347.007L771.919,346.864L772.134,346.721L772.349,346.58L772.564,346.439L772.78,346.299L772.996,346.16L773.212,346.022L773.429,345.884L773.646,345.747L773.863,345.611L774.08,345.476L774.298,345.342L774.516,345.208L774.734,345.075L774.953,344.943L775.171,344.812L775.39,344.681L775.61,344.552L775.829,344.423L776.049,344.295L776.269,344.167L776.489,344.041L776.709,343.915L776.93,343.79L777.151,343.665L777.372,343.542L777.593,343.419L777.814,343.297L778.036,343.176L778.257,343.055L778.479,342.935L778.702,342.816L778.924,342.698L779.146,342.58L779.369,342.463L779.592,342.347L779.815,342.232L780.038,342.117L780.261,342.003L780.484,341.89L780.708,341.778L780.931,341.666L781.155,341.555L781.379,341.445L781.602,341.335L781.827,341.226L782.275,341.01L782.723,340.798L783.172,340.588L783.622,340.38L784.071,340.176L784.521,339.974L784.971,339.775L785.421,339.579L785.871,339.386L786.321,339.195L786.771,339.007L787.221,338.821L787.671,338.638L788.121,338.458L788.57,338.28L789.02,338.105L789.469,337.932L789.918,337.762L790.367,337.595L790.815,337.43L791.263,337.267L791.71,337.107L792.157,336.95L792.603,336.795L793.049,336.642L793.495,336.491L793.939,336.343L794.383,336.198L794.826,336.054L795.269,335.913L795.711,335.775L796.152,335.638L796.592,335.504L797.031,335.372L797.469,335.243L797.906,335.115L798.342,334.99L798.777,334.867L799.211,334.746L799.644,334.627L800.075,334.511L800.506,334.396L800.935,334.284L801.363,334.174L801.789,334.065L802.214,333.959L802.638,333.855L803.06,333.753L803.481,333.652L803.9,333.554L804.317,333.458L804.733,333.363L805.148,333.271L805.56,333.18L805.971,333.092L806.38,333.005L806.787,332.92L807.193,332.836L807.596,332.755L807.998,332.675L808.397,332.598L808.795,332.521L809.19,332.447L809.584,332.374L809.975,332.303L810.364,332.234L810.751,332.167L811.135,332.101L811.518,332.036L811.898,331.974L812.275,331.912L812.651,331.853L813.023,331.795L813.394,331.738L813.761,331.683L814.127,331.63L814.489,331.578L814.849,331.528L815.206,331.478L815.561,331.431L815.912,331.385L816.261,331.34L816.608,331.296L816.951,331.254L817.291,331.214L817.628,331.174L817.963,331.136L818.294,331.099L818.622,331.064L818.947,331.029L819.269,330.996L819.588,330.965L819.903,330.934L820.216,330.905L820.524,330.876L820.83,330.849L821.132,330.823L821.431,330.798L821.726,330.774L822.018,330.752L822.306,330.73L822.591,330.71L822.872,330.69L823.149,330.671L823.422,330.654L823.692,330.637L823.958,330.621L824.221,330.607L824.479,330.593L824.733,330.58L824.984,330.568L825.473,330.546L825.946,330.528L826.402,330.513L826.842,330.501L827.264,330.492L827.669,330.486L828.056,330.482L828.426,330.481L828.776,330.482ZM828.06,331.026L827.676,331.03L827.274,331.036L826.855,331.045L826.419,331.057L825.965,331.072L825.496,331.09L825.009,331.112L824.76,331.123L824.507,331.136L824.25,331.15L823.99,331.165L823.725,331.18L823.457,331.197L823.185,331.214L822.909,331.233L822.629,331.252L822.346,331.273L822.059,331.294L821.769,331.317L821.475,331.341L821.178,331.365L820.877,331.391L820.573,331.418L820.266,331.446L819.955,331.476L819.641,331.506L819.324,331.538L819.004,331.571L818.68,331.605L818.353,331.64L818.023,331.677L817.691,331.715L817.355,331.754L817.016,331.795L816.674,331.836L816.33,331.88L815.983,331.924L815.632,331.97L815.279,332.018L814.924,332.066L814.565,332.117L814.205,332.168L813.841,332.222L813.475,332.276L813.106,332.333L812.735,332.39L812.362,332.45L811.986,332.511L811.607,332.573L811.227,332.637L810.844,332.703L810.459,332.77L810.071,332.839L809.682,332.91L809.29,332.982L808.896,333.056L808.5,333.132L808.103,333.209L807.703,333.289L807.301,333.37L806.898,333.452L806.492,333.537L806.085,333.624L805.676,333.712L805.265,333.802L804.853,333.894L804.439,333.988L804.023,334.084L803.606,334.182L803.187,334.282L802.767,334.383L802.345,334.487L801.922,334.593L801.498,334.701L801.072,334.811L800.645,334.922L800.216,335.036L799.787,335.153L799.356,335.271L798.924,335.391L798.491,335.513L798.057,335.638L797.622,335.765L797.186,335.894L796.749,336.025L796.311,336.159L795.873,336.294L795.433,336.432L794.993,336.573L794.552,336.715L794.11,336.86L793.668,337.007L793.225,337.157L792.781,337.309L792.337,337.463L791.892,337.62L791.447,337.779L791.002,337.941L790.556,338.105L790.109,338.272L789.663,338.441L789.216,338.613L788.769,338.787L788.322,338.963L787.874,339.143L787.427,339.325L786.979,339.509L786.532,339.696L786.084,339.886L785.637,340.078L785.189,340.274L784.742,340.471L784.295,340.672L783.848,340.875L783.402,341.081L782.955,341.29L782.509,341.501L782.064,341.716L781.841,341.824L781.618,341.933L781.396,342.043L781.174,342.153L780.951,342.264L780.729,342.376L780.507,342.488L780.286,342.601L780.064,342.715L779.842,342.83L779.621,342.945L779.4,343.062L779.179,343.178L778.958,343.296L778.737,343.414L778.517,343.533L778.296,343.653L778.076,343.774L777.856,343.895L777.636,344.017L777.417,344.14L777.197,344.263L776.978,344.388L776.759,344.513L776.541,344.638L776.322,344.765L776.104,344.892L775.886,345.02L775.668,345.149L775.451,345.279L775.233,345.409L775.016,345.54L774.799,345.672L774.583,345.805L774.367,345.939L774.151,346.073L773.935,346.208L773.72,346.344L773.505,346.48L773.29,346.618L773.075,346.756L772.861,346.895L772.647,347.035L772.434,347.175L772.22,347.317L772.007,347.459L771.795,347.602L771.582,347.746L771.371,347.891L771.159,348.036L770.948,348.182L770.737,348.329L770.526,348.477L770.316,348.626L770.106,348.776L769.897,348.926L769.688,349.077L769.479,349.229L769.271,349.382L769.063,349.536L768.856,349.69L768.649,349.846L768.442,350.002L768.236,350.159L768.03,350.317L767.825,350.476L767.62,350.635L767.415,350.796L767.211,350.957L767.007,351.119L766.804,351.282L766.601,351.446L766.399,351.611L766.197,351.776L765.996,351.943L765.795,352.11L765.595,352.278L765.395,352.447L765.195,352.617L764.996,352.788L764.798,352.96L764.6,353.133L764.403,353.306L764.206,353.48L764.009,353.656L763.814,353.832L763.618,354.009L763.423,354.187L763.229,354.366L763.035,354.546L762.842,354.726L762.65,354.908L762.458,355.09L762.266,355.274L762.075,355.458L761.885,355.643L761.695,355.829L761.506,356.016L761.317,356.204L761.129,356.393L760.942,356.583L760.755,356.774L760.569,356.965L760.383,357.158L760.198,357.352L760.014,357.546L759.83,357.741L759.647,357.938L759.464,358.135L759.283,358.333L759.101,358.533L758.921,358.733L758.741,358.934L758.562,359.136L758.383,359.339L758.205,359.543L758.028,359.748L757.852,359.953L757.676,360.16L757.501,360.368L757.326,360.577L757.152,360.787L756.979,360.997L756.807,361.209L756.635,361.422L756.465,361.635L756.294,361.85L756.125,362.066L755.956,362.282L755.788,362.5L755.621,362.718L755.455,362.938L755.289,363.159L755.124,363.38L754.96,363.603L754.796,363.826L754.634,364.051L754.472,364.276L754.311,364.503L754.151,364.731L753.991,364.959L753.833,365.189L753.675,365.42L753.518,365.651L753.361,365.884L753.206,366.118L753.051,366.352L752.898,366.588L752.745,366.825L752.593,367.063L752.441,367.302L752.291,367.542L752.141,367.783L751.993,368.025L751.845,368.268L751.698,368.512L751.552,368.757L751.407,369.003L751.262,369.25L751.119,369.498L750.976,369.748L750.835,369.998L750.694,370.25L750.554,370.502L750.415,370.756L750.277,371.01L750.14,371.266L750.004,371.523L749.869,371.781L749.735,372.04L749.601,372.3L749.469,372.561L749.337,372.823L749.207,373.086L749.078,373.351L748.949,373.616L748.821,373.883L748.695,374.151L748.569,374.419L748.445,374.689L748.321,374.96L748.198,375.232L748.077,375.505L747.956,375.78L747.837,376.055L747.718,376.331L747.601,376.609L747.484,376.888L747.369,377.168L747.254,377.449L747.141,377.731L747.028,378.014L746.917,378.298L746.807,378.584L746.698,378.87L746.59,379.158L746.482,379.447L746.376,379.737L746.272,380.028L746.168,380.32L746.065,380.614L745.964,380.908L745.863,381.204L745.764,381.501L745.665,381.799L745.568,382.098L745.472,382.399L745.377,382.7L745.283,383.003L745.191,383.307L745.099,383.612L745.009,383.918L744.92,384.225L744.832,384.534L744.745,384.843L744.659,385.154L744.574,385.466L744.491,385.78L744.409,386.094L744.328,386.41L744.248,386.726L744.169,387.044L744.092,387.364L744.016,387.684L743.941,388.006L743.867,388.328L743.794,388.652L743.723,388.978L743.653,389.304L743.584,389.632L743.516,389.96L743.45,390.29L743.385,390.622L743.321,390.954L743.258,391.288L743.197,391.623L743.137,391.959L743.078,392.296L743.02,392.635L742.964,392.975L742.909,393.316L742.856,393.658L742.803,394.002L742.752,394.346L742.702,394.692L742.654,395.04L742.607,395.388L742.561,395.738L742.517,396.089L742.473,396.441L742.432,396.795L742.391,397.149L742.352,397.506L742.314,397.863L742.297,398.032L742.281,398.205L742.265,398.38L742.251,398.557L742.236,398.738L742.223,398.921L742.211,399.107L742.199,399.295L742.188,399.486L742.178,399.68L742.169,399.876L742.16,400.075L742.153,400.276L742.146,400.48L742.141,400.686L742.136,400.895L742.132,401.106L742.13,401.32L742.128,401.536L742.127,401.754L742.128,401.975L742.129,402.198L742.132,402.423L742.135,402.651L742.14,402.881L742.146,403.113L742.153,403.347L742.161,403.583L742.17,403.822L742.181,404.063L742.192,404.305L742.205,404.55L742.219,404.797L742.235,405.046L742.252,405.297L742.27,405.55L742.289,405.805L742.309,406.062L742.331,406.321L742.355,406.582L742.38,406.844L742.406,407.109L742.433,407.375L742.462,407.643L742.493,407.913L742.525,408.185L742.558,408.458L742.593,408.733L742.629,409.01L742.667,409.288L742.707,409.568L742.748,409.85L742.79,410.133L742.835,410.418L742.881,410.704L742.928,410.992L742.977,411.282L743.028,411.573L743.081,411.865L743.135,412.159L743.191,412.454L743.249,412.75L743.308,413.048L743.37,413.347L743.433,413.648L743.498,413.95L743.564,414.253L743.633,414.557L743.703,414.863L743.776,415.17L743.85,415.478L743.926,415.787L744.004,416.097L744.084,416.408L744.166,416.721L744.25,417.034L744.336,417.349L744.424,417.664L744.514,417.981L744.607,418.298L744.701,418.616L744.797,418.936L744.896,419.256L744.996,419.577L745.099,419.899L745.204,420.221L745.311,420.545L745.42,420.869L745.531,421.194L745.645,421.52L745.761,421.847L745.879,422.174L746,422.502L746.122,422.83L746.247,423.159L746.375,423.489L746.505,423.819L746.637,424.15L746.771,424.481L746.908,424.813L747.047,425.145L747.189,425.478L747.333,425.811L747.48,426.144L747.629,426.478L747.781,426.813L747.935,427.147L748.092,427.482L748.251,427.817L748.413,428.153L748.578,428.488L748.745,428.824L748.915,429.16L749.087,429.497L749.262,429.833L749.44,430.169L749.62,430.506L749.803,430.843L749.989,431.18L750.178,431.516L750.369,431.853L750.563,432.19L750.76,432.527L750.96,432.863L751.163,433.2L751.368,433.536L751.577,433.872L751.788,434.209L752.002,434.545L752.219,434.88L752.439,435.216L752.662,435.551L752.888,435.886L753.117,436.221L753.349,436.555L753.584,436.889L753.822,437.223L753.942,437.39L754.063,437.556L754.185,437.723L754.307,437.889L754.43,438.055L754.554,438.222L754.679,438.388L754.805,438.554L754.931,438.719L755.058,438.885L755.186,439.051L755.315,439.216L755.444,439.381L755.575,439.546L755.706,439.711L755.838,439.876L755.97,440.041L756.104,440.206L756.238,440.37L756.373,440.534L756.509,440.698L756.646,440.862L756.784,441.026L756.922,441.19L757.061,441.353L757.201,441.516L757.342,441.68L757.484,441.843L757.626,442.005L757.769,442.168L757.913,442.33L758.058,442.492L758.204,442.654L758.351,442.816L758.498,442.978L758.647,443.139L758.796,443.301L758.946,443.462L759.097,443.622L759.248,443.783L759.401,443.943L759.554,444.103L759.708,444.263L759.864,444.423L760.02,444.583L760.176,444.742L760.334,444.901L760.493,445.06L760.652,445.218L760.812,445.376L760.974,445.534L761.136,445.692L761.299,445.85L761.462,446.007L761.627,446.164L761.793,446.321L761.959,446.478L762.127,446.634L762.295,446.79L762.464,446.946L762.634,447.101L762.805,447.256L762.977,447.411L763.149,447.566L763.323,447.72L763.498,447.874L763.673,448.028L763.849,448.181L764.027,448.334L764.205,448.487L764.384,448.64L764.564,448.792L764.745,448.944L764.927,449.096L765.11,449.247L765.293,449.398L765.478,449.549L765.664,449.699L765.85,449.849L766.038,449.999L766.226,450.148L766.415,450.297L766.606,450.446L766.797,450.594L766.989,450.742L767.182,450.89L767.376,451.037L767.571,451.184L767.767,451.331L767.964,451.477L768.162,451.623L768.361,451.769L768.561,451.914L768.762,452.059L768.963,452.203L769.166,452.347L769.37,452.491L769.574,452.634L769.78,452.777L769.987,452.919L770.194,453.062L770.403,453.203L770.613,453.345L770.823,453.486L771.035,453.626L771.247,453.766L771.461,453.906L771.675,454.045L771.891,454.184L772.107,454.323L772.325,454.461L772.544,454.598L772.763,454.736L772.984,454.872L773.205,455.009L773.428,455.145L773.652,455.28L773.876,455.415L774.102,455.55L774.329,455.684L774.556,455.818L774.785,455.951L775.015,456.084L775.246,456.216L775.477,456.348L775.71,456.479L775.944,456.61L776.179,456.741L776.415,456.871L776.652,457L776.89,457.13L777.129,457.258L777.369,457.386L777.611,457.514L777.853,457.641L778.096,457.768L778.341,457.894L778.586,458.019L778.833,458.144L779.08,458.269L779.329,458.393L779.579,458.517L779.83,458.64L780.081,458.763L780.334,458.885L780.588,459.006L780.844,459.127L781.1,459.248L781.357,459.368L781.615,459.487L781.875,459.606L782.135,459.724L782.397,459.842L782.66,459.959L782.924,460.076L783.189,460.192L783.455,460.308L783.722,460.423L783.99,460.538L784.259,460.651L784.53,460.765L784.802,460.878L785.074,460.99L785.348,461.102L785.623,461.213L785.899,461.323L786.176,461.433L786.455,461.542L786.734,461.651L787.015,461.759L787.296,461.867L787.579,461.974L787.863,462.08L788.148,462.186L788.435,462.291L788.722,462.396L789.011,462.5L789.3,462.603L789.591,462.706L789.883,462.808L790.176,462.909L790.471,463.01L790.766,463.11L791.063,463.21L791.361,463.309L791.66,463.407L791.96,463.505L792.261,463.602L792.564,463.698L792.867,463.794L793.172,463.889L793.478,463.983L793.785,464.077L794.094,464.17L794.403,464.262L794.714,464.354L795.026,464.445L795.339,464.536L795.653,464.625L795.969,464.714L796.286,464.803L796.604,464.89L796.923,464.977L797.243,465.064L797.565,465.149L797.887,465.234L798.211,465.318L798.536,465.402L798.863,465.485L799.19,465.567L799.519,465.648L799.849,465.729L800.181,465.809L800.513,465.888L800.847,465.967L801.182,466.044L801.518,466.121L801.855,466.198L802.194,466.273L802.534,466.348L802.875,466.422L803.217,466.496L803.561,466.568L803.906,466.64L804.252,466.711L804.599,466.782L804.948,466.851L805.298,466.92L805.649,466.988L806.001,467.055L806.355,467.122L806.71,467.188L807.066,467.253L807.424,467.317L807.782,467.38L808.143,467.443L808.504,467.505L808.866,467.566L809.32,467.641L809.771,467.715L810.22,467.787L810.666,467.857L811.11,467.925L811.552,467.992L811.991,468.057L812.427,468.121L812.862,468.183L813.293,468.243L813.723,468.302L814.15,468.359L814.575,468.415L814.997,468.469L815.417,468.522L815.835,468.573L816.25,468.622L816.663,468.67L817.074,468.716L817.482,468.761L817.889,468.804L818.293,468.846L818.694,468.886L819.094,468.925L819.491,468.962L819.886,468.998L820.278,469.032L820.669,469.065L821.057,469.096L821.443,469.126L821.827,469.154L822.209,469.181L822.589,469.207L822.966,469.231L823.341,469.254L823.714,469.275L824.085,469.295L824.454,469.314L824.821,469.331L825.186,469.347L825.548,469.361L825.909,469.374L826.267,469.386L826.624,469.396L826.978,469.405L827.33,469.413L827.68,469.419L828.029,469.424L828.375,469.428L828.719,469.431L829.061,469.432L829.401,469.432L829.74,469.43L830.076,469.428L830.41,469.424L830.743,469.419L831.073,469.412L831.402,469.404L831.728,469.396L832.053,469.386L832.376,469.374L832.697,469.362L833.016,469.348L833.333,469.333L833.648,469.317L833.962,469.3L834.273,469.281L834.583,469.262L834.891,469.241L835.197,469.219L835.502,469.196L835.804,469.172L836.105,469.147L836.404,469.121L836.701,469.093L836.997,469.065L837.29,469.035L837.582,469.004L837.873,468.972L838.161,468.94L838.448,468.906L838.733,468.871L839.017,468.835L839.299,468.798L839.579,468.76L839.857,468.72L840.134,468.68L840.409,468.639L840.683,468.597L840.955,468.554L841.225,468.51L841.494,468.465L841.761,468.419L842.027,468.372L842.291,468.324L842.553,468.275L842.814,468.226L843.074,468.175L843.331,468.123L843.588,468.071L843.842,468.017L844.096,467.963L844.348,467.908L844.598,467.852L844.847,467.795L845.094,467.737L845.34,467.678L845.585,467.619L845.828,467.558L846.069,467.497L846.309,467.435L846.548,467.372L846.786,467.309L847.022,467.244L847.256,467.179L847.49,467.113L847.721,467.046L847.952,466.979L848.181,466.91L848.409,466.841L848.636,466.771L848.861,466.701L849.085,466.629L849.308,466.557L849.529,466.485L849.749,466.411L849.968,466.337L850.185,466.262L850.402,466.187L850.617,466.111L850.831,466.034L851.044,465.956L851.255,465.878L851.465,465.799L851.674,465.72L851.882,465.64L852.089,465.559L852.295,465.477L852.499,465.395L852.702,465.313L852.905,465.23L853.106,465.146L853.306,465.062L853.505,464.977L853.702,464.891L853.899,464.805L854.095,464.719L854.289,464.632L854.483,464.544L854.675,464.456L854.867,464.368L855.057,464.278L855.246,464.189L855.435,464.099L855.622,464.008L855.809,463.917L855.994,463.825L856.179,463.733L856.362,463.641L856.545,463.548L856.726,463.455L856.907,463.361L857.087,463.267L857.266,463.172L857.444,463.077L857.621,462.982L857.797,462.886L857.973,462.79L858.147,462.693L858.321,462.596L858.494,462.499L858.666,462.401L858.837,462.303L859.007,462.205L859.346,462.007L859.681,461.808L860.013,461.608L860.342,461.407L860.669,461.205L860.992,461.002L861.313,460.797L861.631,460.592L861.947,460.387L862.26,460.18L862.57,459.973L862.878,459.765L863.184,459.556L863.488,459.347L863.79,459.138L864.089,458.928L864.387,458.718L864.682,458.507L864.976,458.297L865.269,458.086L865.559,457.875L865.848,457.664L866.135,457.453L866.421,457.243L866.706,457.032L867.271,456.612L867.832,456.193L868.943,455.362L869.494,454.951L870.044,454.543L870.318,454.34L870.591,454.139L870.865,453.938L871.138,453.739L871.275,453.64L871.413,453.543L871.553,453.446L871.693,453.351L871.834,453.257L871.976,453.164L872.119,453.072L872.262,452.98L872.407,452.891L872.553,452.802L872.7,452.714L872.847,452.627L872.996,452.541L873.145,452.456L873.296,452.372L873.447,452.289L873.599,452.207L873.752,452.126L873.906,452.046L874.06,451.967L874.216,451.889L874.373,451.812L874.53,451.735L874.688,451.66L874.847,451.585L875.007,451.511L875.168,451.438L875.33,451.366L875.492,451.295L875.655,451.224L875.82,451.155L875.984,451.086L876.15,451.018L876.317,450.95L876.484,450.884L876.652,450.818L876.821,450.752L876.991,450.688L877.161,450.624L877.333,450.561L877.505,450.499L877.677,450.437L877.851,450.376L878.025,450.315L878.2,450.256L878.376,450.196L878.553,450.138L878.73,450.08L878.908,450.022L879.087,449.966L879.266,449.909L879.447,449.854L879.627,449.798L879.809,449.744L879.991,449.69L880.174,449.636L880.542,449.53L880.913,449.426L881.287,449.324L881.663,449.223L882.041,449.124L882.422,449.027L882.806,448.931L883.192,448.836L883.581,448.742L883.972,448.65L884.365,448.558L884.761,448.468L885.159,448.378L885.559,448.289L885.961,448.2L886.365,448.113L886.772,448.025L887.18,447.938L888.003,447.765L888.834,447.591L889.672,447.418L890.517,447.243L891.369,447.066L892.227,446.886L892.658,446.795L893.091,446.703L893.526,446.61L893.961,446.515L894.398,446.42L894.837,446.323L895.276,446.225L895.717,446.125L896.159,446.023L896.602,445.92L897.046,445.815L897.492,445.708L897.938,445.599L898.385,445.488L898.833,445.374L899.282,445.259L899.732,445.141L900.183,445.02L900.635,444.897L901.087,444.771L901.54,444.643L901.993,444.511L902.22,444.444L902.447,444.377L902.675,444.309L902.902,444.24L903.13,444.17L903.357,444.099L903.585,444.028L903.813,443.955L904.041,443.882L904.269,443.808L904.498,443.733L904.726,443.658L904.954,443.581L905.183,443.503L905.411,443.425L905.64,443.346L905.869,443.266L906.097,443.184L906.326,443.102L906.555,443.019L906.784,442.935L907.013,442.85L907.242,442.764L907.471,442.677L907.7,442.589L907.929,442.5L908.158,442.41L908.388,442.318L908.617,442.226L908.846,442.133L909.075,442.038L909.304,441.943L909.533,441.846L909.762,441.748L909.991,441.649L910.22,441.549L910.449,441.448L910.678,441.345L910.907,441.242L911.136,441.137L911.365,441.031L911.593,440.924L911.822,440.815L912.051,440.705L912.279,440.594L912.507,440.482L912.736,440.369L912.964,440.254L913.192,440.138L913.42,440.02L913.648,439.901L913.876,439.781L914.104,439.66L914.331,439.537L914.559,439.413L914.786,439.287L915.013,439.16L915.24,439.031L915.467,438.902L915.694,438.77L915.92,438.637L916.147,438.503L916.373,438.368L916.599,438.23L916.825,438.092L917.051,437.952L917.276,437.81L917.501,437.667L917.726,437.522L917.951,437.376L918.176,437.228L918.4,437.078L918.625,436.927L918.849,436.775L919.072,436.62L919.296,436.464L919.519,436.307L919.742,436.148L919.965,435.987L920.188,435.824L920.41,435.66L920.632,435.494L920.854,435.327L921.075,435.157L921.296,434.986L921.517,434.814L921.738,434.639L921.958,434.463L922.178,434.285L922.398,434.105L922.617,433.923L922.836,433.74L923.055,433.554L923.273,433.367L923.491,433.178L923.709,432.987L923.96,432.767L924.212,432.548L924.464,432.332L924.716,432.118L924.968,431.907L925.221,431.697L925.473,431.49L925.726,431.285L925.978,431.081L926.231,430.88L926.484,430.681L926.736,430.484L926.989,430.29L927.242,430.097L927.495,429.906L927.748,429.717L928.001,429.53L928.254,429.345L928.507,429.161L928.76,428.98L929.012,428.801L929.265,428.623L929.518,428.447L929.77,428.273L930.023,428.101L930.275,427.93L930.527,427.762L930.779,427.595L931.031,427.429L931.283,427.266L931.534,427.104L931.786,426.943L932.037,426.785L932.287,426.627L932.538,426.472L932.789,426.318L933.039,426.165L933.289,426.014L933.538,425.865L933.787,425.717L934.036,425.57L934.285,425.425L934.533,425.282L934.781,425.139L935.029,424.998L935.276,424.859L935.523,424.721L935.769,424.584L936.016,424.448L936.261,424.314L936.506,424.18L936.751,424.048L936.995,423.918L937.239,423.788L937.483,423.66L937.725,423.533L937.968,423.407L938.21,423.282L938.451,423.158L938.691,423.035L939.171,422.792L939.649,422.554L940.124,422.319L940.596,422.088L941.066,421.861L941.533,421.637L941.997,421.416L942.458,421.198L942.916,420.983L943.371,420.771L943.823,420.561L944.271,420.354L945.158,419.945L946.03,419.545L946.886,419.15L947.308,418.955L947.726,418.761L948.14,418.568L948.549,418.375L948.954,418.183L949.355,417.992L949.75,417.8L950.141,417.609L950.528,417.418L950.909,417.227L951.097,417.131L951.285,417.035L951.471,416.939L951.656,416.842L951.839,416.746L952.021,416.649L952.202,416.552L952.382,416.455L952.56,416.358L952.737,416.26L952.912,416.162L953.086,416.064L953.258,415.965L953.429,415.866L953.599,415.767L953.767,415.667L953.934,415.567L954.099,415.466L954.263,415.365L954.425,415.263L954.586,415.161L954.745,415.059L954.903,414.955L955.059,414.852L955.214,414.747L955.367,414.642L955.518,414.537L955.668,414.43L955.816,414.324L955.962,414.216L956.107,414.108L956.251,413.999L956.392,413.889L956.532,413.778L956.67,413.667L956.807,413.555L956.941,413.442L957.074,413.328L957.206,413.213L957.335,413.098L957.463,412.981L957.589,412.864L957.713,412.745L957.836,412.626L957.956,412.505L958.075,412.384L958.192,412.261L958.307,412.138L958.42,412.013L958.531,411.888L958.641,411.761L958.748,411.633L958.854,411.504L958.957,411.373L959.059,411.242L959.159,411.109L959.257,410.975L959.352,410.84L959.446,410.704L959.538,410.566L959.628,410.427L959.716,410.286L959.801,410.144L959.885,410.001L959.966,409.856L960.046,409.71L960.123,409.563L960.199,409.414L960.272,409.264L960.343,409.112L960.412,408.958L960.478,408.803L960.543,408.646L960.605,408.488L960.665,408.329L960.723,408.167L960.779,408.004L960.833,407.839L960.884,407.673L960.933,407.505L960.98,407.335L961.024,407.163L961.066,406.99L961.106,406.815L961.144,406.638L961.179,406.459L961.212,406.278L961.242,406.096L961.27,405.911L961.296,405.725L961.319,405.536L961.34,405.346L961.359,405.154L961.375,404.96L961.388,404.763L961.4,404.565L961.408,404.365L961.415,404.162L961.418,403.958L961.419,403.751L961.418,403.542L961.414,403.332L961.408,403.118L961.399,402.903L961.387,402.686L961.373,402.466L961.356,402.244L961.337,402.019L961.315,401.793L961.291,401.564L961.263,401.333L961.233,401.099L961.201,400.863L961.166,400.624L961.128,400.383L961.087,400.14L961.043,399.894L960.997,399.646L960.948,399.395L960.897,399.142L960.842,398.886L960.785,398.628L960.725,398.367L960.662,398.103L960.597,397.837L960.528,397.568L960.457,397.296L960.383,397.022L960.306,396.745L960.226,396.465L960.143,396.183L960.057,395.898L959.968,395.61L959.877,395.319L959.782,395.025L959.685,394.729L959.584,394.429L959.481,394.127L959.374,393.822L959.264,393.514L959.193,393.316L959.121,393.119L959.049,392.922L958.975,392.725L958.901,392.529L958.826,392.332L958.751,392.136L958.674,391.939L958.597,391.743L958.519,391.547L958.44,391.351L958.361,391.155L958.281,390.959L958.2,390.764L958.118,390.568L958.036,390.373L957.953,390.178L957.869,389.983L957.784,389.788L957.698,389.593L957.612,389.399L957.525,389.204L957.438,389.01L957.349,388.816L957.26,388.622L957.17,388.428L957.079,388.234L956.988,388.041L956.896,387.847L956.803,387.654L956.709,387.461L956.614,387.268L956.519,387.075L956.423,386.882L956.327,386.69L956.229,386.498L956.131,386.305L956.032,386.113L955.932,385.922L955.832,385.73L955.731,385.538L955.629,385.347L955.526,385.156L955.423,384.965L955.318,384.774L955.213,384.583L955.108,384.393L955.001,384.202L954.894,384.012L954.786,383.822L954.678,383.632L954.568,383.443L954.458,383.253L954.347,383.064L954.236,382.875L954.123,382.686L954.01,382.497L953.896,382.308L953.782,382.12L953.666,381.931L953.55,381.743L953.433,381.556L953.316,381.368L953.198,381.18L953.079,380.993L952.959,380.806L952.838,380.619L952.717,380.432L952.595,380.246L952.472,380.059L952.349,379.873L952.224,379.687L952.099,379.501L951.974,379.316L951.847,379.13L951.72,378.945L951.592,378.76L951.463,378.575L951.334,378.391L951.204,378.206L951.073,378.022L950.941,377.838L950.809,377.654L950.676,377.471L950.542,377.287L950.407,377.104L950.272,376.921L950.136,376.738L949.999,376.556L949.862,376.373L949.723,376.191L949.584,376.009L949.445,375.828L949.304,375.646L949.163,375.465L949.021,375.284L948.878,375.103L948.735,374.923L948.591,374.742L948.446,374.562L948.3,374.382L948.154,374.202L948.007,374.023L947.859,373.844L947.71,373.665L947.561,373.486L947.411,373.307L947.26,373.129L947.109,372.951L946.957,372.773L946.804,372.595L946.65,372.418L946.496,372.241L946.341,372.064L946.185,371.887L946.028,371.711L945.871,371.534L945.713,371.358L945.554,371.183L945.394,371.007L945.234,370.832L945.073,370.657L944.911,370.482L944.749,370.308L944.586,370.133L944.422,369.959L944.257,369.785L944.092,369.612L943.926,369.439L943.759,369.266L943.591,369.093L943.423,368.92L943.254,368.748L943.084,368.576L942.914,368.404L942.743,368.233L942.571,368.062L942.398,367.891L942.225,367.72L942.051,367.549L941.876,367.379L941.7,367.209L941.524,367.04L941.347,366.87L941.169,366.701L940.991,366.532L940.812,366.364L940.632,366.195L940.451,366.027L940.27,365.859L940.088,365.692L939.905,365.525L939.722,365.358L939.537,365.191L939.352,365.025L939.167,364.859L938.98,364.693L938.793,364.527L938.605,364.362L938.417,364.197L938.227,364.032L938.037,363.868L937.847,363.704L937.655,363.54L937.463,363.376L937.27,363.213L937.077,363.05L936.882,362.887L936.687,362.725L936.491,362.563L936.295,362.401L936.098,362.239L935.9,362.078L935.701,361.917L935.502,361.757L935.302,361.596L935.101,361.436L934.899,361.276L934.697,361.117L934.494,360.958L934.291,360.799L934.086,360.64L933.675,360.324L933.262,360.009L932.845,359.696L932.425,359.383L932.003,359.072L931.578,358.762L931.15,358.453L930.719,358.146L930.285,357.84L929.848,357.535L929.409,357.232L928.966,356.93L928.521,356.629L928.073,356.329L927.622,356.031L927.169,355.734L926.712,355.439L926.253,355.144L925.79,354.852L925.325,354.56L924.857,354.27L924.387,353.982L923.913,353.694L923.437,353.408L922.958,353.124L922.476,352.841L921.991,352.56L921.503,352.279L921.012,352.001L920.519,351.723L920.023,351.448L919.524,351.173L919.022,350.901L918.518,350.629L918.01,350.359L917.5,350.091L916.987,349.824L916.471,349.559L915.953,349.295L915.431,349.033L914.907,348.772L914.38,348.513L913.85,348.256L913.318,348L912.782,347.745L912.244,347.492L911.703,347.241L911.16,346.991L910.613,346.743L910.064,346.497L909.512,346.252L908.957,346.009L908.399,345.767L907.839,345.528L907.276,345.289L906.71,345.053L906.141,344.818L905.569,344.585L904.995,344.353L904.418,344.123L903.838,343.895L903.256,343.669L902.67,343.444L902.082,343.221L901.491,343L900.898,342.78L900.301,342.563L899.702,342.347L899.1,342.132L898.496,341.92L897.888,341.709L897.278,341.5L896.665,341.293L896.05,341.088L895.431,340.885L894.81,340.683L894.187,340.483L893.56,340.285L892.931,340.089L892.299,339.895L891.664,339.703L891.027,339.512L890.386,339.324L889.743,339.137L889.098,338.952L888.449,338.769L887.798,338.588L887.144,338.409L886.488,338.232L885.829,338.057L885.167,337.884L884.502,337.712L883.835,337.543L883.165,337.375L882.492,337.21L881.816,337.047L881.138,336.885L880.457,336.726L879.774,336.568L879.087,336.413L878.398,336.26L877.707,336.108L877.012,335.959L876.315,335.812L875.615,335.667L874.913,335.523L874.208,335.382L873.5,335.243L872.79,335.107L872.076,334.972L871.361,334.839L870.642,334.709L869.921,334.58L869.197,334.454L868.47,334.33L867.741,334.208L867.009,334.088L866.275,333.97L865.537,333.855L864.797,333.741L864.055,333.63L863.31,333.521L862.562,333.414L861.811,333.31L861.058,333.208L860.302,333.107L859.544,333.01L858.783,332.914L858.019,332.821L857.252,332.73L856.483,332.641L855.712,332.554L854.937,332.47L854.16,332.388L853.381,332.308L852.598,332.231L851.813,332.156L851.026,332.083L850.236,332.013L849.443,331.944L848.647,331.879L847.849,331.815L847.049,331.754L846.245,331.696L845.439,331.639L844.631,331.586L843.82,331.534L843.006,331.485L842.189,331.438L841.37,331.394L840.549,331.352L839.725,331.313L838.898,331.276L838.068,331.242L837.236,331.209L836.402,331.18L835.564,331.153L834.724,331.128L833.882,331.106L833.037,331.087L832.189,331.07L831.339,331.055L830.486,331.043L829.631,331.033L828.773,331.026L828.426,331.025L828.06,331.026Z"/>
            </g>
            <text x="818.966px" y="401.067px" style="font-family:'ArialMT', 'Arial', sans-serif;font-size:20px;">Congestion</text>
        </g>
    </g>
</svg>
