<?xml version="1.0" encoding="UTF-8" standalone="no"?>
<!DOCTYPE svg PUBLIC "-//W3C//DTD SVG 1.1//EN" "http://www.w3.org/Graphics/SVG/1.1/DTD/svg11.dtd">
<svg width="100%" height="100%" viewBox="0 0 1284 254" version="1.1" xmlns="http://www.w3.org/2000/svg" xmlns:xlink="http://www.w3.org/1999/xlink" xml:space="preserve" xmlns:serif="http://www.serif.com/" style="fill-rule:evenodd;clip-rule:evenodd;stroke-linejoin:round;stroke-miterlimit:1.41421;">
    <g id="_-242021ff" serif:id="#242021ff">
        <path d="M109.11,60.01C108.83,58.2 110.82,58.43 111.97,58.4C464.65,58.4 817.34,58.4 1170.02,58.4C1178.79,58.58 1187.59,58.05 1196.33,58.66C1196.95,76.25 1196.42,93.9 1196.59,111.51C1206.36,111.52 1216.12,111.5 1225.89,111.52C1225.89,108.86 1225.9,106.2 1225.97,103.54C1231.43,104.6 1236.57,106.81 1241.87,108.45C1245.28,109.69 1248.88,110.46 1252.15,112.09C1252.06,112.47 1251.86,113.23 1251.76,113.61C1247.36,115.51 1242.7,116.68 1238.2,118.3C1234.22,119.49 1230.39,121.28 1226.26,121.91C1225.76,119.3 1225.89,116.64 1225.87,114C1216.11,114.01 1206.35,114 1196.59,114C1196.43,131.82 1196.92,149.67 1196.35,167.46C1187.59,168.16 1178.75,167.56 1169.96,167.76C1152.03,167.76 1134.1,167.77 1116.17,167.75C1116.17,177.18 1116.17,186.6 1116.17,196.02C1118.74,196.04 1121.34,195.92 1123.92,196.29C1123.66,200.59 1121.49,204.49 1120.37,208.6C1118.55,213.38 1117.66,218.55 1115.01,222.96C1111.78,218.16 1111.04,212.21 1108.9,206.9C1108.05,203.37 1105.74,199.92 1106.11,196.26C1108.61,195.92 1111.14,196.05 1113.68,196.02C1113.67,186.6 1113.68,177.17 1113.67,167.74C1096.28,167.78 1078.89,167.76 1061.51,167.76C1063.95,175.96 1067.15,183.93 1069.33,192.22C1066.63,192.39 1063.93,192.41 1061.25,192.42C1061.26,202.17 1061.24,211.91 1061.26,221.66C1060.63,221.67 1059.39,221.7 1058.77,221.71C1058.75,211.95 1058.75,202.18 1058.76,192.42C1056.06,192.41 1053.36,192.39 1050.68,192.21C1052.85,183.93 1056.05,175.96 1058.51,167.76C932.84,167.76 807.18,167.78 681.51,167.74C681.52,177.15 681.52,186.56 681.51,195.97C684.17,195.98 686.83,195.99 689.49,196.15C687.92,203.19 685.07,209.86 683.01,216.77C682.2,218.8 682.09,221.43 679.93,222.57C677.48,218.04 676.48,212.92 674.68,208.13C673.51,204.2 671.71,200.43 671.13,196.34C673.72,195.82 676.38,196 679.02,195.97C679.02,186.57 679,177.16 679.03,167.76C661.63,167.76 644.22,167.76 626.81,167.76C629.35,175.92 632.54,183.89 634.62,192.18C631.94,192.32 629.27,192.34 626.6,192.35C626.6,202.11 626.6,211.86 626.6,221.62C625.98,221.62 624.73,221.63 624.11,221.63C624.09,211.87 624.1,202.11 624.1,192.34C621.45,192.26 618.71,192.67 616.17,191.82C618.21,183.65 621.41,175.8 623.9,167.75C498.3,167.78 372.7,167.75 247.11,167.76C247.1,176.97 247.11,186.19 247.1,195.4C249.75,195.47 252.49,195.1 255.07,195.9C253.85,201.38 251.63,206.58 249.99,211.94C248.72,215.34 248.13,219.07 246.02,222.1C244.2,220.75 243.9,218.44 243.19,216.45C241.06,209.49 238.37,202.7 236.54,195.64C239.22,195.41 241.92,195.4 244.61,195.38C244.61,186.18 244.62,176.97 244.61,167.76C227.27,167.76 209.94,167.76 192.61,167.76C195.02,175.6 198.05,183.27 200.17,191.19C197.63,192.19 194.83,191.66 192.18,191.78C192.19,201.54 192.18,211.29 192.19,221.05C191.56,221.05 190.32,221.04 189.69,221.04C189.7,211.29 189.69,201.54 189.7,191.79C187.05,191.65 184.25,192.19 181.72,191.21C183.8,183.27 186.85,175.61 189.27,167.76C163.82,167.77 138.37,167.74 112.92,167.78C111.8,167.8 110.68,167.72 109.57,167.54C108.69,166.24 109.18,164.5 109.01,163.02C109.07,146.45 109.02,129.88 109.04,113.31C91.52,113.31 74.01,113.31 56.49,113.31C56.5,112.48 56.5,111.65 56.51,110.82C74.02,110.82 91.53,110.82 109.04,110.82C109.09,93.88 108.93,76.94 109.11,60.01M111.54,60.9C111.54,77.54 111.53,94.18 111.54,110.82C121.01,110.82 130.48,110.81 139.95,110.83C139.97,108.13 139.99,105.43 140.23,102.74C148.87,105.23 157.44,108.12 165.88,111.2C165.92,111.61 165.99,112.45 166.02,112.87C157.52,115.96 148.92,118.95 140.18,121.32C140,118.65 139.97,115.97 139.96,113.3C130.48,113.33 121.01,113.3 111.53,113.31C111.54,130.63 111.53,147.94 111.54,165.26C183.02,165.26 254.51,165.26 326,165.26C326,148.08 325.99,130.91 326,113.73C308.39,113.73 290.78,113.73 273.17,113.73C273.17,113.11 273.17,111.86 273.17,111.24C290.78,111.23 308.39,111.23 326,111.23C325.99,94.46 326,77.68 326,60.9C254.51,60.9 183.02,60.9 111.54,60.9M328.48,60.92C328.5,77.69 328.48,94.46 328.49,111.23C337.87,111.23 347.26,111.23 356.64,111.23C356.65,108.76 356.56,106.28 356.79,103.82C358.33,102.89 360.01,104.12 361.55,104.44C368.86,107.11 376.44,109.04 383.59,112.14C381.3,114.46 377.97,114.93 375.03,116.01C368.95,117.88 363.03,120.32 356.81,121.75C356.66,119.08 356.64,116.4 356.64,113.73C347.25,113.74 337.87,113.73 328.49,113.73C328.49,130.91 328.49,148.08 328.49,165.26C400.05,165.26 471.62,165.26 543.18,165.26C543.18,130.47 543.18,95.69 543.18,60.9C471.61,60.92 400.05,60.88 328.48,60.92M545.68,60.9C545.68,95.69 545.68,130.47 545.68,165.26C617.09,165.26 688.51,165.26 759.92,165.26C759.92,148.07 759.92,130.87 759.92,113.68C742.52,113.67 725.13,113.69 707.73,113.67C707.74,113.05 707.75,111.8 707.76,111.18C725.15,111.18 742.53,111.18 759.92,111.18C759.92,94.42 759.92,77.66 759.92,60.9C688.51,60.9 617.09,60.9 545.68,60.9M762.41,60.9C762.42,77.66 762.4,94.42 762.42,111.18C772.02,111.18 781.61,111.18 791.22,111.18C791.49,108.58 790.53,105.57 791.96,103.24C800.77,105.85 809.57,108.68 818.13,112.06C816.12,114.23 813.13,114.73 810.47,115.68C804.15,117.66 797.95,120.04 791.55,121.77C791.21,119.09 791.2,116.38 791.19,113.68C781.6,113.68 772,113.68 762.41,113.68C762.41,130.87 762.41,148.07 762.41,165.26C834.07,165.26 905.73,165.26 977.39,165.26C977.39,130.47 977.39,95.69 977.39,60.9C905.73,60.9 834.07,60.91 762.41,60.9M979.9,60.9C979.89,95.69 979.89,130.47 979.9,165.26C1051.29,165.26 1122.69,165.26 1194.09,165.26C1194.1,148.17 1194.09,131.09 1194.1,114C1176.86,114 1159.63,114.01 1142.41,114C1142.41,113.38 1142.41,112.14 1142.41,111.51C1159.64,111.51 1176.86,111.51 1194.09,111.51C1194.1,94.64 1194.09,77.77 1194.09,60.9C1122.69,60.9 1051.29,60.9 979.9,60.9Z" style="fill:rgb(36,32,33);fill-rule:nonzero;"/>
        <path d="M77.95,82.74C79.71,82.15 81.12,83.79 82.58,84.48C83.13,83.91 84.24,82.78 84.79,82.21C83.48,89.07 81.53,95.79 79.91,102.58C80.74,102.93 82.39,103.63 83.22,103.98C80.35,104.07 77.48,104.06 74.61,104.1L74.59,103.26C75.33,103.12 76.82,102.85 77.56,102.71C78.1,100.61 78.68,98.52 79.24,96.42C77.01,97.93 73.57,98.77 71.87,96.08C69.06,91.17 72.73,84.23 77.95,82.74M77.26,84.05C74.3,86.38 73.69,90.49 73.28,94.01C73.14,95.4 74.2,97.89 75.98,97.05C80.43,95.91 80.57,90.53 81.49,86.89C82.23,84.52 79.13,82.09 77.26,84.05Z" style="fill:rgb(36,32,33);fill-rule:nonzero;"/>
        <path d="M293.47,83.53C295.47,82.37 297.41,83.73 299.04,84.85C299.66,84.3 300.92,83.2 301.55,82.65C300.04,89.61 298.12,96.46 296.55,103.4C297.17,103.41 298.42,103.43 299.05,103.44C299.05,103.72 299.06,104.3 299.06,104.58C296.19,104.47 293.3,104.56 290.46,104.14C291.39,103.87 293.27,103.35 294.2,103.08C294.78,101.02 295.34,98.94 295.95,96.88C293.82,98.02 290.89,99.31 288.97,97.04C285.53,92.55 288.84,85.76 293.47,83.53M294.31,84.21C291.12,86.31 290.48,90.5 289.97,94C289.59,95.59 291.03,98.7 292.94,97.39C296.96,96.16 297.15,91.41 298.04,88C299.26,85.75 296.58,82.79 294.31,84.21Z" style="fill:rgb(36,32,33);fill-rule:nonzero;"/>
        <path d="M727.52,83.74C729.57,82.42 731.99,83.27 733.53,84.93C734.44,84.2 735.25,83.33 736.18,82.57C734.58,89.42 732.8,96.22 731.15,103.05C731.98,103.32 733.65,103.85 734.49,104.12C731.68,104.5 728.83,104.43 726.01,104.51C725.96,104.27 725.86,103.79 725.81,103.55C726.55,103.45 728.04,103.24 728.79,103.14C729.35,101.01 729.9,98.88 730.5,96.77C728.48,97.85 725.71,99.27 723.78,97.19C720.01,93.01 723.19,86.21 727.52,83.74M729.07,84.06C725.3,86.72 723.79,92.65 725.2,96.88C728.65,99.08 731.62,94.17 731.91,91.06C733.18,88.48 733.46,82.76 729.07,84.06Z" style="fill:rgb(36,32,33);fill-rule:nonzero;"/>
        <path d="M1152.02,97.01C1148.74,92.35 1152.22,85.41 1157.13,83.48C1159.05,82.47 1160.68,84.08 1162.3,84.92C1162.91,84.39 1164.12,83.31 1164.73,82.77C1163.22,89.59 1161.4,96.32 1159.78,103.11C1160.82,103.53 1161.85,104.01 1162.87,104.53C1159.81,104.63 1156.76,104.64 1153.72,104.45C1154.92,103.96 1156.1,103.55 1157.37,103.15C1157.95,101.12 1158.5,99.09 1159.12,97.07C1156.94,98.18 1153.87,99.39 1152.02,97.01M1158.13,84.05C1153.98,86.16 1153.05,91.83 1153.3,96.05C1154.29,99.31 1158.02,97.1 1159.17,95.17C1160.43,92.27 1161.18,89.1 1161.45,85.95C1160.71,84.74 1159.7,83.47 1158.13,84.05Z" style="fill:rgb(36,32,33);fill-rule:nonzero;"/>
        <path d="M88.52,87.68C91.03,86.26 94.97,87.09 95.97,90.03C97.12,93.38 97.23,97.3 95.71,100.55C93.93,104.32 87.52,103.76 86.49,99.66C85.45,95.79 85.1,90.49 88.52,87.68M90.01,87.97C87.71,88.9 88.15,91.96 87.95,93.97C88.1,96.93 87.28,101.52 91.04,102.56C92.43,102.29 94.06,101.59 94.25,99.98C94.84,96.71 94.87,93.3 94.28,90.03C94.08,88.19 91.54,87.05 90.01,87.97Z" style="fill:rgb(36,32,33);fill-rule:nonzero;"/>
        <path d="M303.19,89.75C305.14,88.83 307.17,88.09 309.16,87.24C309.21,92.07 309.19,96.89 309.19,101.72C310.6,101.99 312.01,102.28 313.41,102.61C310.29,103.03 307.14,103 304,103.05L303.99,102.24C304.8,102.2 306.41,102.11 307.22,102.07C307.3,97.83 307.24,93.59 307.3,89.35C306.27,89.45 304.21,89.65 303.19,89.75Z" style="fill:rgb(36,32,33);fill-rule:nonzero;"/>
        <path d="M742.1,87.14C743.87,86.49 744.41,89.48 742.67,89.74C740.79,90.33 740.17,87.43 742.1,87.14Z" style="fill:rgb(36,32,33);fill-rule:nonzero;"/>
        <path d="M1169.29,87C1171.02,86.99 1172.8,87.02 1174.56,87.05C1176.58,91.28 1178.65,95.48 1180.71,99.69C1181.65,95.93 1182.63,92.18 1183.46,88.39C1182.74,88.05 1181.3,87.38 1180.59,87.05C1182.89,87.04 1185.21,87.03 1187.54,86.98C1186.34,87.94 1184.34,88.3 1184.09,90.06C1182.78,94.57 1181.9,99.21 1180.52,103.7C1177.73,98.84 1175.54,93.68 1172.96,88.71C1171.98,92.99 1170.52,97.18 1169.95,101.55C1170.54,101.94 1171.73,102.73 1172.33,103.12C1170.07,103.1 1167.83,103.1 1165.59,103.08C1166.34,102.68 1167.82,101.88 1168.56,101.47C1170.21,97.24 1170.84,92.69 1172.13,88.34C1171.42,88 1170,87.33 1169.29,87Z" style="fill:rgb(36,32,33);fill-rule:nonzero;"/>
        <path d="M736.54,97.07C737.34,95.09 738.58,91.74 741.29,92.35C744.74,95.13 739.44,98.86 740.84,102.2C742.57,101.78 743.26,99.85 744.53,98.77C743.74,100.36 743.2,102.45 741.34,103.12C740.15,103.87 738.17,102.41 738.53,101.04C739.08,98.66 740.23,96.48 741.09,94.2C740.81,94.1 740.26,93.9 739.98,93.79C738.25,94.09 737.7,96.02 736.54,97.07Z" style="fill:rgb(36,32,33);fill-rule:nonzero;"/>
        <path d="M145.81,197.49C142.71,192.59 146.67,185.5 152.02,184.25C154.12,184.69 156.11,185.7 158.34,185.17C157.15,190.53 155.83,195.86 154.41,201.16C153.28,205.82 147.43,206.85 143.5,205.48C141.76,204.25 143.58,202.71 144.12,201.36C145.62,202.37 145.81,203.9 145.45,205.57C147.01,205.18 148.77,205.22 150.15,204.32C152.07,202.71 152.31,200.02 153.24,197.85C150.9,198.96 147.61,200.07 145.81,197.49M152.13,185.04C148.92,186.33 148.03,190.02 147.38,193.05C146.9,195.01 146.74,197.68 149.01,198.58C153.8,198.01 154.38,192.75 155.18,188.98C156.08,187.05 154.26,184.51 152.13,185.04Z" style="fill:rgb(36,32,33);fill-rule:nonzero;"/>
        <path d="M581.14,198.94C575.56,194.02 582.49,182.33 589.53,185.58C590.34,185.62 591.95,185.7 592.76,185.74C591.54,191.15 590.22,196.55 588.77,201.9C587.92,205.25 584.22,206.82 581.03,206.73C579.29,206.81 576.76,206.16 577.02,203.95C577.87,203 579.17,202.8 580.32,202.41C580.1,203.38 579.66,205.33 579.44,206.3C580.56,206.06 582.81,205.57 583.93,205.33C586.39,203.86 586.72,200.73 587.64,198.29C585.63,199.1 583.14,200.67 581.14,198.94M581.55,195.13C581.03,197.01 582.47,199.94 584.72,198.79C589.13,197.13 588.7,191.58 590.06,187.85C589.14,186.93 588.27,185.9 587.06,185.39C583,186.74 582.15,191.46 581.55,195.13Z" style="fill:rgb(36,32,33);fill-rule:nonzero;"/>
        <path d="M1010.73,187.85C1012.62,185.1 1016.66,182.73 1019.53,185.61C1020.22,185.39 1021.6,184.95 1022.29,184.73C1021.14,190.49 1019.74,196.22 1018.11,201.86C1016.32,206.55 1010.31,206.54 1006.29,205.18C1007.04,203.65 1007.73,200.37 1009.64,202.8C1009.57,203.48 1009.43,204.82 1009.36,205.49C1010.76,205.34 1012.14,205.07 1013.51,204.67C1016,203.27 1016.19,200.08 1017.14,197.7C1015.11,198.55 1012.69,200.09 1010.66,198.37C1007.4,195.74 1008.52,190.79 1010.73,187.85M1012.87,188.12C1011.57,191.46 1009.67,195.89 1012.74,198.86C1015.45,197.91 1017.95,196.02 1018.2,192.94C1018.47,190.6 1020.53,187.45 1018.19,185.66C1016.33,183.66 1013.71,186.33 1012.87,188.12Z" style="fill:rgb(36,32,33);fill-rule:nonzero;"/>
        <path d="M268.93,189.63C270.19,187.91 271.24,185.19 273.79,185.34C275.24,186.07 276.47,187.16 277.89,187.97C279.14,186.97 280.3,185.86 281.53,184.83C278.83,189.91 273.93,193.16 269.96,197.15C271.96,197.55 273.92,198.39 276,198.31C277.85,197.57 279,195.82 280.48,194.58C279.42,197.17 277.94,200.34 274.78,200.69C273.05,200.33 271.94,198.71 270.56,197.74C269.12,198.81 267.72,199.95 266.29,201.03C269.05,195.98 273.95,192.75 277.9,188.74C276.25,188.33 274.63,187.84 272.96,187.59C271.51,188.05 270.25,188.91 268.93,189.63Z" style="fill:rgb(36,32,33);fill-rule:nonzero;"/>
        <path d="M702.48,189.39C703.82,187.61 705.12,184.52 707.88,185.13C709.07,185.91 710.09,186.89 711.2,187.79C712.55,186.76 713.89,185.69 715.3,184.71C712.3,189.51 707.72,192.94 703.65,196.76C705.65,197.22 707.65,198.2 709.76,197.97C711.4,197.08 712.71,195.71 714.2,194.59C712.93,197.01 711.4,200.32 708.22,200.35C706.64,199.71 705.44,198.44 704.07,197.49C702.67,198.58 701.28,199.69 699.84,200.72C702.77,195.77 707.56,192.44 711.57,188.46C708.42,187.03 705.15,187.12 702.48,189.39Z" style="fill:rgb(36,32,33);fill-rule:nonzero;"/>
        <path d="M1137.37,189.45C1138.43,187.54 1139.56,185.21 1142.05,184.96C1143.47,185.8 1144.71,186.89 1146.04,187.9C1147.28,186.8 1148.52,185.68 1149.82,184.64C1147.12,189.66 1142.3,192.93 1138.33,196.85C1140.18,197.33 1142.04,198 1143.99,198.13C1145.91,197.55 1147.13,195.82 1148.69,194.64C1147.61,197.22 1145.85,200.66 1142.55,200.38C1141.16,199.59 1139.99,198.48 1138.75,197.52C1137.36,198.61 1136,199.73 1134.62,200.81C1137.33,195.74 1142.28,192.54 1146.2,188.51C1144.46,188.09 1142.77,187.51 1141.01,187.35C1139.73,187.97 1138.57,188.74 1137.37,189.45Z" style="fill:rgb(36,32,33);fill-rule:nonzero;"/>
        <path d="M1027.12,188.07C1028.83,188.04 1030.56,188.04 1032.29,188.04C1034.41,192.26 1036.46,196.52 1038.55,200.76C1039.39,197.12 1040.51,193.54 1041.18,189.86C1040.4,189.2 1039.61,188.57 1038.8,187.98C1041,188.09 1043.21,188.08 1045.43,187.97C1044.27,188.94 1042.29,189.29 1041.97,190.97C1040.63,195.53 1039.77,200.22 1038.33,204.75C1035.57,199.86 1033.32,194.71 1030.79,189.72C1029.8,194.04 1028.38,198.27 1027.73,202.66C1028.35,203.04 1029.59,203.8 1030.21,204.18C1027.98,204.16 1025.75,204.17 1023.54,204.14C1024.27,203.71 1025.73,202.86 1026.46,202.44C1028.04,198.21 1028.68,193.68 1030.01,189.37C1029.28,189.04 1027.84,188.39 1027.12,188.07Z" style="fill:rgb(36,32,33);fill-rule:nonzero;"/>
        <path d="M160.14,191.06C162.11,190.06 164.2,189.31 166.23,188.43C166.28,193.27 166.24,198.12 166.27,202.97C167.61,203.29 168.95,203.62 170.29,203.97C166.98,204.28 163.64,204.29 160.33,203.93C161.33,203.7 163.32,203.23 164.32,203C164.35,198.85 164.31,194.7 164.37,190.56C163.31,190.68 161.2,190.93 160.14,191.06Z" style="fill:rgb(36,32,33);fill-rule:nonzero;"/>
        <path d="M282.64,191.85C284.73,191.08 286.87,190.41 288.95,189.6C288.89,194.42 288.92,199.24 288.93,204.05C289.9,204.3 291.86,204.79 292.84,205.03C289.57,205.37 286.27,205.36 283.01,205.05C284,204.79 285.99,204.29 286.99,204.04C286.99,199.91 286.98,195.78 287,191.64C285.54,191.75 284.09,191.85 282.64,191.85Z" style="fill:rgb(36,32,33);fill-rule:nonzero;"/>
        <path d="M719.57,190.98C719.08,188.05 724.42,188.96 722.27,191.46C721.15,192.18 720.25,192.02 719.57,190.98Z" style="fill:rgb(36,32,33);fill-rule:nonzero;"/>
        <path d="M1154.18,189.05C1155.87,188.98 1157.59,188.92 1159.31,188.87C1161.44,193.1 1163.48,197.38 1165.59,201.62C1166.51,197.89 1167.47,194.16 1168.35,190.42C1167.65,190.06 1166.25,189.36 1165.55,189.01C1167.7,189 1169.85,189.01 1172.02,188.99L1171.99,189.33C1171.39,189.65 1170.18,190.31 1169.57,190.64C1167.59,195.43 1167.04,200.71 1165.38,205.63C1162.59,200.75 1160.37,195.59 1157.83,190.59C1156.73,194.95 1155.59,199.3 1154.61,203.68C1155.32,204.01 1156.74,204.65 1157.45,204.97C1155.13,205.03 1152.82,205.04 1150.53,205.06C1151.76,204.12 1153.83,203.78 1154.03,201.93C1155.13,198.05 1155.95,194.1 1157.01,190.21C1156.3,189.92 1154.89,189.34 1154.18,189.05Z" style="fill:rgb(36,32,33);fill-rule:nonzero;"/>
        <path d="M596.62,194.46C598.02,193.52 599.98,195.26 599.4,196.77C598.62,199.49 597.3,202.06 596.94,204.9C598.67,203.7 600.05,202.1 601.53,200.62C600.66,202.62 599.08,206.02 596.29,204.77C593.67,202.01 598.32,198.75 597.25,195.58C595.35,195.57 594.68,197.72 593.41,198.73C594.2,197.17 594.8,195.14 596.62,194.46Z" style="fill:rgb(36,32,33);fill-rule:nonzero;"/>
        <path d="M715.87,197C717.28,195.25 719.72,193.22 721.47,195.87C721.07,199.06 719.25,201.88 718.74,205.07C720.65,204.02 722.01,202.31 723.51,200.77C722.52,202.67 721.35,205.85 718.62,205.18C715.12,202.85 720.39,198.86 719.16,195.69C717.29,195.6 716.86,197.66 715.96,198.84C715.94,198.38 715.89,197.46 715.87,197Z" style="fill:rgb(36,32,33);fill-rule:nonzero;"/>
    </g>
</svg>
